<?xml version="1.0" standalone="no"?>
<!DOCTYPE svg PUBLIC "-//W3C//DTD SVG 20010904//EN"
 "http://www.w3.org/TR/2001/REC-SVG-20010904/DTD/svg10.dtd">
<svg version="1.0" xmlns="http://www.w3.org/2000/svg"
 width="368.000000pt" height="368.000000pt" viewBox="0 0 368.000000 368.000000"
 preserveAspectRatio="xMidYMid meet">

<g transform="translate(0.000000,368.000000) scale(0.100000,-0.100000)"
fill="#000000" stroke="none">
<path d="M343 3186 c-89 -29 -178 -108 -215 -194 -80 -181 21 -408 208 -468
l51 -17 238 -781 c131 -430 241 -787 243 -793 3 -10 -21 -13 -99 -14 -57 0
-126 -4 -152 -7 l-48 -7 298 -217 c163 -119 299 -216 300 -214 6 6 252 690
249 693 -1 2 -59 -33 -129 -77 -70 -43 -128 -76 -130 -72 -2 4 -111 359 -242
790 l-239 782 32 33 c17 17 43 59 59 92 23 50 27 74 28 140 0 71 -4 88 -33
147 -37 75 -96 133 -170 169 -58 28 -186 36 -249 15z"/>
<path d="M1580 2987 l-294 -212 64 -6 c36 -4 105 -7 153 -8 87 -1 88 -1 81
-23 -3 -13 -74 -236 -156 -496 l-150 -473 55 -199 c30 -110 62 -206 70 -215
19 -18 41 -19 54 -2 5 6 101 303 214 659 112 356 207 648 210 648 3 0 57 -33
120 -73 63 -40 120 -76 126 -81 7 -4 -17 78 -53 181 -36 103 -91 261 -122 351
-31 89 -61 162 -67 161 -5 0 -143 -96 -305 -212z"/>
<path d="M3040 2987 l-294 -212 64 -6 c36 -4 105 -7 153 -8 87 -1 88 -1 81
-23 -3 -13 -74 -236 -156 -496 l-150 -473 55 -199 c30 -110 62 -206 70 -215
19 -18 41 -19 54 -2 5 6 101 303 214 659 112 356 207 648 210 648 3 0 57 -33
120 -73 63 -40 120 -76 126 -81 7 -4 -17 78 -53 181 -36 103 -91 261 -122 351
-31 89 -61 162 -67 161 -5 0 -143 -96 -305 -212z"/>
<path d="M2161 2342 c-14 -11 -40 -80 -81 -207 -33 -104 -60 -197 -60 -205 0
-8 61 -235 135 -504 74 -270 135 -491 135 -493 0 -1 -68 -4 -152 -5 l-152 -3
284 -219 c157 -121 290 -223 295 -227 7 -5 58 113 144 332 73 187 131 342 129
344 -2 3 -61 -29 -130 -69 l-126 -73 -47 166 c-25 91 -108 390 -183 664 -94
338 -143 502 -154 508 -11 6 -23 3 -37 -9z"/>
</g>
</svg>
