<?xml version="1.0" standalone="no"?>
<!DOCTYPE svg PUBLIC "-//W3C//DTD SVG 1.1//EN" "http://www.w3.org/Graphics/SVG/1.1/DTD/svg11.dtd" >
<svg xmlns="http://www.w3.org/2000/svg">
<metadata>Generated by IcoMoon</metadata>
<defs>
<font id="lore-icons" horiz-adv-x="1024">
<font-face units-per-em="1024" ascent="960" descent="-64" />
<missing-glyph horiz-adv-x="1024" />
<glyph unicode="&#x20;" horiz-adv-x="512" d="" />
<glyph unicode="&#xe900;" glyph-name="academy" d="M957.739 656.811l-426.667 213.333c-11.989 6.016-26.155 6.016-38.187 0l-426.667-213.333c-8.533-4.224-15.104-11.648-18.987-19.712-2.56-5.205-4.565-14.080-4.565-18.432v-245.973c0-23.509 19.115-42.667 42.667-42.667s42.667 19.157 42.667 42.667v182.912l85.333-34.133v-209.237c0-16.128 9.131-30.891 23.595-38.144 73.344-36.608 148.736-81.877 275.072-81.877s201.771 45.269 275.072 81.877c14.464 7.296 23.595 22.016 23.595 38.187v209.237l143.872 57.557c15.573 6.229 26.069 21.035 26.752 37.845 0.725 16.768-8.533 32.341-23.552 39.893zM725.333 338.645l-41.6-20.779c-107.563-53.803-235.947-53.803-343.467 0l-41.6 20.779v148.693l197.461-79.019c5.12-2.048 10.496-2.987 15.872-2.987s10.752 0.939 15.872 3.029l197.461 79.019v-148.736zM512 493.952l-322.603 129.067 322.603 161.237 322.603-161.237-322.603-129.067zM85.333 277.333c-23.552 0-42.667-19.115-42.667-42.667v-85.333c0-23.595 19.115-42.667 42.667-42.667s42.667 19.072 42.667 42.667v85.333c0 23.552-19.115 42.667-42.667 42.667z" />
<glyph unicode="&#xe901;" glyph-name="alert-triangle" d="M896 21.333h-768c-14.805 0-28.501 7.68-36.309 20.224-7.808 12.629-8.448 28.288-1.877 41.557l384 768c14.464 28.885 61.867 28.885 76.331 0l384-768c6.571-13.269 5.931-28.885-1.877-41.557-7.765-12.587-21.461-20.224-36.267-20.224zM197.035 106.667h629.931l-314.965 629.888-314.965-629.888zM469.333 533.333h85.333v-256h-85.333v256zM565.333 192c0-29.455-23.878-53.333-53.333-53.333s-53.333 23.878-53.333 53.333c0 29.455 23.878 53.333 53.333 53.333s53.333-23.878 53.333-53.333z" />
<glyph unicode="&#xe902;" glyph-name="article1" d="M657.664 874.667h-401.664c-47.061 0-85.333-38.315-85.333-85.333v-682.667c0-47.061 38.272-85.333 85.333-85.333h512c47.061 0 85.333 38.272 85.333 85.333v572.331l-195.669 195.669zM768.043 106.667h-512.043v682.667h341.333v-170.667h170.667l0.043-512zM341.333 490.667h256v-85.333h-256v85.333zM341.333 320h341.333v-85.333h-341.333v85.333z" />
<glyph unicode="&#xe903;" glyph-name="bookmark-document1" d="M853.333 832h-298.667v42.667c0 23.595-19.072 42.667-42.667 42.667h-256c-23.595 0-42.667-19.072-42.667-42.667v-42.667h-42.667c-47.104 0-85.333-38.229-85.333-85.333v-640c0-47.104 38.229-85.333 85.333-85.333h682.667c47.104 0 85.333 38.229 85.333 85.333v640c0 47.104-38.229 85.333-85.333 85.333zM298.667 832h170.667v-366.336l-55.168 55.168c-8.32 8.32-19.243 12.501-30.165 12.501s-21.845-4.181-30.165-12.501l-55.168-55.168v366.336zM853.205 106.667h-682.539v640h42.667v-384c0-17.237 10.411-32.853 26.325-39.424 15.957-6.571 34.261-2.944 46.507 9.259l97.835 97.835 97.835-97.835c8.149-8.149 19.072-12.501 30.165-12.501 5.504 0 11.051 1.067 16.341 3.243 15.915 6.571 26.325 22.187 26.325 39.424v384h298.667l-0.128-640zM597.333 661.333h170.667v-85.333h-170.667v85.333zM597.333 533.333h170.667v-85.333h-170.667v85.333zM597.333 405.333h170.667v-85.333h-170.667v85.333zM256 277.333h512v-85.333h-512v85.333z" />
<glyph unicode="&#xe904;" glyph-name="bookmark" d="M768 874.667h-512c-23.595 0-42.667-19.072-42.667-42.667v-768c0-17.237 10.411-32.853 26.325-39.424s34.261-2.901 46.507 9.259l225.835 225.835 225.835-225.835c8.149-8.149 19.072-12.501 30.165-12.501 5.504 0 11.051 1.067 16.341 3.243 15.915 6.571 26.325 22.187 26.325 39.424v768c0 23.595-19.072 42.667-42.667 42.667zM298.667 789.333h42.667v-579.669l-42.667-42.667v622.336zM512 362.667c-10.923 0-21.845-4.181-30.165-12.501l-55.168-55.168v494.336h170.667v-494.336l-55.168 55.168c-8.32 8.32-19.243 12.501-30.165 12.501zM725.333 166.997l-42.667 42.667v579.669h42.667v-622.336z" />
<glyph unicode="&#xe905;" glyph-name="building" d="M384 661.376h85.333v-85.333h-85.333v85.333zM554.667 661.376h85.333v-85.333h-85.333v85.333zM384 490.709h85.333v-85.333h-85.333v85.333zM554.667 490.709h85.333v-85.333h-85.333v85.333zM213.333 320.043h85.333v-85.333h-85.333v85.333zM384 320.043h85.333v-85.333h-85.333v85.333zM554.667 320.043h85.333v-85.333h-85.333v85.333zM725.333 320.043h85.333v-85.333h-85.333v85.333zM896 448.043h-128v341.333c0 23.509-19.115 42.667-42.667 42.667h-85.333v42.667c0 23.509-19.115 42.667-42.667 42.667h-170.667c-23.552 0-42.667-19.157-42.667-42.667v-42.667h-85.333c-23.552 0-42.667-19.157-42.667-42.667v-341.333h-128c-23.552 0-42.667-19.157-42.667-42.667v-341.333c0-23.595 19.115-42.667 42.667-42.667h768c23.552 0 42.667 19.072 42.667 42.667v341.333c0 23.552-19.115 42.667-42.667 42.667zM853.333 106.709h-256v85.333h-170.667v-85.333h-256v256h128c23.552 0 42.667 19.072 42.667 42.667v341.333h85.333c23.552 0 42.667 19.072 42.667 42.667v42.667h85.333v-42.667c0-23.595 19.115-42.667 42.667-42.667h85.333v-341.333c0-23.595 19.115-42.667 42.667-42.667h128v-256z" />
<glyph unicode="&#xe906;" glyph-name="calculator" d="M896 917.333h-768c-47.104 0-85.333-38.315-85.333-85.333v-768c0-47.061 38.229-85.333 85.333-85.333h768c47.104 0 85.333 38.272 85.333 85.333v768c0 47.019-38.229 85.333-85.333 85.333zM895.915 490.667h-341.248v341.333h341.333l-0.085-341.333zM469.333 832v-341.333h-341.333v341.333h341.333zM128 405.333h341.333v-341.333h-341.333v341.333zM554.667 64v341.333h341.248l-0.043-341.333h-341.205zM597.333 704h256v-85.333h-256v85.333zM597.333 362.667h256v-85.333h-256v85.333zM597.333 192h256v-85.333h-256v85.333zM256 533.333h85.333v85.333h85.333v85.333h-85.333v85.333h-85.333v-85.333h-85.333v-85.333h85.333zM414.165 289.835l-60.331 60.331-55.168-55.168-55.168 55.168-60.331-60.331 55.168-55.168-55.168-55.168 60.331-60.331 55.168 55.168 55.168-55.168 60.331 60.331-55.168 55.168z" />
<glyph unicode="&#xe907;" glyph-name="calendar" d="M896 832h-128v85.333h-85.333v-256h85.333v85.333h128v-640h-768v640h85.333v85.333h-85.333c-47.104 0-85.333-38.187-85.333-85.333v-640c0-47.104 38.229-85.333 85.333-85.333h768c47.104 0 85.333 38.229 85.333 85.333v640c0 47.147-38.229 85.333-85.333 85.333zM341.333 746.667h298.667v85.333h-298.667v85.333h-85.333v-256h85.333zM213.333 576h170.667v-170.667h-170.667v170.667zM426.667 576h170.667v-170.667h-170.667v170.667zM640 576h170.667v-170.667h-170.667v170.667zM213.333 362.667h170.667v-170.667h-170.667v170.667zM426.667 362.667h170.667v-170.667h-170.667v170.667z" />
<glyph unicode="&#xe908;" glyph-name="certificate" d="M426.667 277.291h-341.333c-47.104 0-85.333 38.272-85.333 85.333v512c0 47.061 38.229 85.333 85.333 85.333h682.667c47.104 0 85.333-38.272 85.333-85.333v-128h-85.333v128h-682.667v-512h341.333v-85.333zM426.667 405.291h-256c-23.595 0-42.667 19.115-42.667 42.667v341.333c0 23.595 19.072 42.667 42.667 42.667h512c23.595 0 42.667-19.072 42.667-42.667v-42.667h-512v-256h213.333v-85.333zM853.333 405.291c0-47.128-38.205-85.333-85.333-85.333s-85.333 38.205-85.333 85.333c0 47.128 38.205 85.333 85.333 85.333s85.333-38.205 85.333-85.333zM1024 405.291c0 141.184-114.816 256-256 256s-256-114.816-256-256c0-89.259 45.909-167.851 115.328-213.675l-29.568-206.976c-2.389-16.683 5.248-33.152 19.499-42.155 14.251-8.96 32.427-8.704 46.421 0.64l104.32 69.547 104.32-69.547c7.168-4.779 15.403-7.168 23.68-7.168 7.936 0 15.787 2.176 22.741 6.528 14.251 9.003 21.888 25.515 19.499 42.155l-29.568 206.976c69.419 45.824 115.328 124.416 115.328 213.675zM768 234.624c-94.251 0-170.667 76.416-170.667 170.667s76.416 170.667 170.667 170.667 170.667-76.416 170.667-170.667-76.416-170.667-170.667-170.667z" />
<glyph unicode="&#xe909;" glyph-name="chart-growth" d="M938.667 21.376v554.667c0 23.509-19.072 42.667-42.667 42.667h-170.667c-23.595 0-42.667-19.157-42.667-42.667v-554.667h-42.667v384c0 23.509-19.072 42.667-42.667 42.667h-170.667c-23.595 0-42.667-19.157-42.667-42.667v-384h-42.667v213.333c0 23.509-19.072 42.667-42.667 42.667h-170.667c-23.595 0-42.667-19.157-42.667-42.667v-213.333h-85.333v-85.333h1024v85.333h-85.333zM170.667 21.376v170.667h85.333v-170.667h-85.333zM469.333 21.376v341.333h85.333v-341.333h-85.333zM768 21.376v512h85.333v-512h-85.333zM158.165 332.544l481.835 481.792v-110.336h85.333v256h-256v-85.333h110.336l-481.835-481.792z" />
<glyph unicode="&#xe90a;" glyph-name="chat-bubble-ok" d="M511.915 64h-426.667c-16.981 0-32.341 10.069-39.083 25.6-6.784 15.573-3.712 33.664 7.851 46.080l98.389 105.984c-44.075 61.611-67.157 132.309-67.157 206.336 0 211.755 191.403 384 426.667 384s426.667-172.245 426.667-384-191.403-384-426.667-384zM183.083 149.333h328.832c188.203 0 341.333 133.973 341.333 298.667 0 164.651-153.131 298.667-341.333 298.667s-341.333-134.016-341.333-298.667c0-65.579 24.235-128 70.059-180.565 14.336-16.469 13.952-41.088-0.896-57.088l-56.661-61.013zM482.645 246.997l-170.965 113.963 59.136 88.747 85.077-56.704 183.296 256.683 86.784-62.037z" />
<glyph unicode="&#xe90b;" glyph-name="chat-bubble-question" d="M127.915-64v170.667h-42.667c-47.104 0-85.333 38.272-85.333 85.333v384c0 47.104 38.229 85.333 85.333 85.333h554.667c47.104 0 85.333-38.229 85.333-85.333v-384c0-47.061-38.229-85.333-85.333-85.333h-284.416l-227.584-170.667zM85.248 576v-384h128v-85.333l113.749 85.333h312.917v384h-554.667zM895.915 576h-85.333v128h42.667c47.104 0 85.333 38.272 85.333 85.333 0 47.104-38.229 85.333-85.333 85.333s-85.333-38.229-85.333-85.333h-85.333c0 94.080 76.587 170.667 170.667 170.667s170.667-76.587 170.667-170.667c0-79.36-54.485-146.261-128-165.291v-48.043zM895.915 490.667c0-23.564-19.103-42.667-42.667-42.667s-42.667 19.103-42.667 42.667c0 23.564 19.103 42.667 42.667 42.667s42.667-19.103 42.667-42.667z" />
<glyph unicode="&#xe90c;" glyph-name="chat-bubble-square" d="M255.915 21.333v170.667h-85.333c-47.061 0-85.333 38.272-85.333 85.333v512c0 47.104 38.272 85.333 85.333 85.333h682.667c47.061 0 85.333-38.229 85.333-85.333v-512c0-47.061-38.272-85.333-85.333-85.333h-369.792l-227.541-170.667zM170.581 789.333v-512h170.667v-85.333l113.792 85.333h398.208v512h-682.667zM255.915 704h512v-85.333h-512v85.333zM255.915 576h512v-85.333h-512v85.333zM255.915 448h341.333v-85.333h-341.333v85.333z" />
<glyph unicode="&#xe90d;" glyph-name="chat-bubbles-circle" d="M1023.915-21.333h-357.035c-152.917 0-277.333 114.816-277.333 256s124.416 256 277.333 256 277.333-114.816 277.333-256c0-35.072-7.893-69.888-22.997-101.931l102.699-154.069zM666.88 405.333c-105.856 0-192-76.587-192-170.667s86.144-170.667 192-170.667h197.632l-43.691 65.579 14.421 23.296c15.701 25.387 23.637 52.864 23.637 81.792 0 94.080-86.144 170.667-192 170.667zM304.213 192h-273.664l161.067 161.024c-38.101 54.059-58.069 115.669-58.069 180.309 0 188.203 172.288 341.333 384 341.333 190.635 0 354.133-126.336 380.331-293.931l-84.309-13.184c-19.755 126.464-147.029 221.781-296.021 221.781-164.693 0-298.667-114.816-298.667-256 0-56.32 21.333-109.995 61.611-155.136l26.88-30.080-70.827-70.784h67.669v-85.333z" />
<glyph unicode="&#xe90e;" glyph-name="check-box" d="M769.792 21.333h-597.333c-47.061 0-85.333 38.272-85.333 85.333v512c0 47.019 38.272 85.333 85.333 85.333h426.667v-85.333h-426.667v-512h597.333v213.333h85.333v-213.333c0-47.061-38.272-85.333-85.333-85.333zM472.917 200.064l-210.176 210.219 75.392 75.435 131.157-131.157 389.035 427.989 78.891-71.765z" />
<glyph unicode="&#xe90f;" glyph-name="check-circle" d="M471.125 21.333c-211.712 0-384 172.245-384 384s172.288 384 384 384v-85.333c-164.693 0-298.667-133.973-298.667-298.667s133.973-298.667 298.667-298.667 298.667 133.973 298.667 298.667h85.333c0-211.755-172.288-384-384-384zM517.717 240.64l-212.309 212.309 75.392 75.435 129.024-129.024 346.667 423.765 82.56-67.584z" />
<glyph unicode="&#xe910;" glyph-name="checklist" d="M940.459 21.333h-853.333c-47.061 0-85.333 38.272-85.333 85.333v682.667c0 47.019 38.272 85.333 85.333 85.333h853.333c47.061 0 85.333-38.315 85.333-85.333v-682.667c0-47.061-38.272-85.333-85.333-85.333zM87.125 789.333v-682.667h853.376l-0.043 682.667h-853.333zM318.379 243.883l-175.531 117.035 59.179 88.789 80.469-53.632 142.293 249.045 92.629-52.949zM599.125 576h256v-85.333h-256v85.333zM599.125 405.333h256v-85.333h-256v85.333z" />
<glyph unicode="&#xe911;" glyph-name="clock" d="M512 21.333c-211.712 0-384 172.245-384 384s172.288 384 384 384 384-172.245 384-384-172.288-384-384-384zM512 704c-164.693 0-298.667-133.973-298.667-298.667s133.973-298.667 298.667-298.667 298.667 133.973 298.667 298.667c0 164.693-133.973 298.667-298.667 298.667zM609.835 247.168l-128 128c-8.021 8.021-12.501 18.859-12.501 30.165v213.333h85.333v-195.669l115.499-115.499-60.331-60.331z" />
<glyph unicode="&#xe912;" glyph-name="cloud" d="M640 149.333h-341.333c-117.632 0-213.333 95.701-213.333 213.333s95.701 213.333 213.333 213.333c22.741 0 45.269-3.669 66.688-10.837 46.037 109.013 152.661 181.504 274.645 181.504 164.651 0 298.667-134.016 298.667-298.667 0-164.693-134.016-298.667-298.667-298.667zM298.667 490.667c-70.571 0-128-57.429-128-128s57.429-128 128-128h341.333c117.632 0 213.333 95.701 213.333 213.333s-95.701 213.333-213.333 213.333c-99.712 0-185.088-67.84-207.573-164.992-3.157-13.483-12.672-24.661-25.6-29.867-12.843-5.205-27.435-3.883-39.125 3.712-20.779 13.397-44.715 20.48-69.035 20.48z" />
<glyph unicode="&#xe913;" glyph-name="code" d="M439.168 520.576l-158.165-158.165 158.165-158.208 60.331 60.373-97.835 97.835 97.835 97.792zM524.501 460.203l97.835-97.792-97.835-97.835 60.331-60.373 158.165 158.208-158.165 158.165zM700.331 917.205h-486.997c-47.061 0-85.333-38.229-85.333-85.333v-768c0-47.061 38.272-85.333 85.333-85.333h597.333c47.061 0 85.333 38.272 85.333 85.333v657.621l-195.669 195.712zM213.333 63.872v768h426.667v-170.667h170.667l0.043-597.333h-597.376z" />
<glyph unicode="&#xe914;" glyph-name="coding-settings" d="M311.168 563.2l-158.165-158.165 158.165-158.165 60.331 60.331-97.835 97.835 97.835 97.835zM85.333 874.496h426.667v-170.667h170.667v-170.368h85.333v230.699l-195.669 195.669h-486.997c-47.061 0-85.333-38.229-85.333-85.333v-768c0-47.061 38.272-85.333 85.333-85.333h341.333v85.333h-341.333v768zM1024 149.163v85.333h-47.019c-5.547 27.221-16.427 52.437-31.275 74.837l33.451 33.451-60.331 60.288-33.493-33.451c-22.357 14.805-47.573 25.685-74.709 31.189v47.019h-85.333v-47.019c-27.179-5.504-52.437-16.384-74.795-31.232l-33.408 33.408-60.331-60.373 33.408-33.408c-14.848-22.315-25.685-47.573-31.232-74.752h-47.019v-85.333h47.019c5.547-27.221 16.384-52.437 31.232-74.837l-33.451-33.451 60.373-60.331 33.408 33.493c22.4-14.805 47.616-25.728 74.795-31.232v-47.061h85.333v47.061c27.179 5.547 52.437 16.427 74.795 31.275l33.451-33.408 60.288 60.331-33.451 33.408c14.805 22.357 25.685 47.573 31.189 74.752h47.104zM767.915 106.496c-47.147 0-85.333 38.229-85.333 85.333s38.187 85.333 85.333 85.333c47.104 0 85.333-38.229 85.333-85.333s-38.229-85.333-85.333-85.333z" />
<glyph unicode="&#xe915;" glyph-name="coffee-cup" d="M725.333 704v42.667c0 23.552-19.072 42.667-42.667 42.667h-512c-23.595 0-42.667-19.115-42.667-42.667v-426.667c0-117.632 95.701-213.333 213.333-213.333h170.667c117.632 0 213.333 95.701 213.333 213.333v42.667c94.080 0 170.667 76.544 170.667 170.667s-76.587 170.667-170.667 170.667zM512 192h-170.667c-70.571 0-128 57.429-128 128v384h426.667v-384c0-70.571-57.429-128-128-128zM725.333 448v170.667c47.104 0 85.333-38.229 85.333-85.333 0-47.061-38.229-85.333-85.333-85.333zM256 576h85.333v-256h-85.333v256z" />
<glyph unicode="&#xe916;" glyph-name="comment" d="M511.915 64h-426.667c-16.981 0-32.341 10.069-39.083 25.6-6.784 15.573-3.712 33.664 7.851 46.080l98.389 105.984c-44.075 61.611-67.157 132.309-67.157 206.336 0 211.755 191.403 384 426.667 384s426.667-172.245 426.667-384-191.403-384-426.667-384zM183.083 149.333h328.832c188.203 0 341.333 133.973 341.333 298.667 0 164.651-153.131 298.667-341.333 298.667s-341.333-134.016-341.333-298.667c0-65.579 24.235-128 70.059-180.565 14.336-16.469 13.952-41.088-0.896-57.088l-56.661-61.013z" />
<glyph unicode="&#xe917;" glyph-name="computer" d="M938.667 832h-853.333c-47.061 0-85.333-38.229-85.333-85.333v-554.667c0-47.061 38.272-85.333 85.333-85.333h384v-85.333h-170.667v-85.333h426.667v85.333h-170.667v85.333h384c47.061 0 85.333 38.272 85.333 85.333v554.667c0 47.104-38.272 85.333-85.333 85.333zM938.667 746.667l-0.085-426.667h-853.248v426.667h853.333zM85.333 192v42.667h853.205v-42.667h-853.205z" />
<glyph unicode="&#xe918;" glyph-name="contacts" d="M426.709 277.333c0 78.549 49.451 128 128 128v0c78.549 0 128-49.451 128-128h-256zM640.043 533.333c0-47.128-38.205-85.333-85.333-85.333s-85.333 38.205-85.333 85.333c0 47.128 38.205 85.333 85.333 85.333s85.333-38.205 85.333-85.333zM810.709 874.667h-512c-47.061 0-85.333-38.229-85.333-85.333v-85.333h-85.333v-85.333h85.333v-128h-85.333v-85.333h85.333v-128h-85.333v-85.333h85.333v-85.333c0-47.061 38.272-85.333 85.333-85.333h512c47.061 0 85.333 38.272 85.333 85.333v682.667c0 47.104-38.272 85.333-85.333 85.333zM298.709 106.667v85.333h42.667v85.333h-42.667v128h42.667v85.333h-42.667v128h42.667v85.333h-42.667v85.333h512l0.043-682.667h-512.043z" />
<glyph unicode="&#xe919;" glyph-name="customize" d="M777.515 392.832l60.331-60.331 128 128c16.683 16.64 16.683 43.648 0 60.331l-54.699 54.699 28.032 27.989c52.139 52.139 52.139 137.088 0 189.269-50.517 50.56-138.667 50.56-189.269 0l-223.659-223.659-104.576 104.533c-2.731 41.216-19.371 79.744-48.853 109.227-60.8 60.843-108.715 58.027-152.107 55.851-27.904-1.365-54.571-8.789-102.827 39.424l-61.568 61.44-10.965-86.272c-1.024-8.149-24.192-201.557 86.059-311.765 29.483-29.483 68.053-46.208 109.269-48.896l104.533-104.533-78.805-78.805c-3.243-3.2-5.931-6.955-8.021-11.093l-128.896-257.835c-8.192-16.427-4.992-36.309 8.021-49.237 13.099-13.141 33.024-16.171 49.237-8.021l257.835 128.896c4.096 2.048 7.851 4.736 11.093 8.021l78.805 78.805 182.699-182.699c24.149-24.192 56.277-37.504 90.496-37.504s66.347 13.312 90.496 37.461c24.192 24.149 37.504 56.32 37.504 90.539 0 34.176-13.312 66.347-37.504 90.496l-182.699 182.699 135.339 135.339 24.533-24.533-97.835-97.835zM878.763 732.501c18.901-18.987 18.901-49.749 0-68.693l-34.304-34.261-68.565 68.608 34.304 34.304c18.347 18.347 50.304 18.304 68.565 0.043zM129.28 766.592c36.779-15.957 66.944-14.507 95.616-13.141 75.605 3.797 112.512-46.848 112.512-91.264 0-22.741-8.875-44.16-25.003-60.331-32.256-32.299-88.448-32.299-120.704 0-44.203 44.373-58.539 112.256-62.421 164.736zM338.347 515.669c12.331 7.253 24.064 15.531 34.432 25.899s18.645 22.059 25.899 34.389l67.2-67.157-60.331-60.331-67.2 67.2zM400.213 185.301l-137.173-68.523 68.565 137.173 383.957 383.915 68.565-68.608-383.915-383.957zM837.845 136.832c16.427-16.427 16.896-43.477 0-60.331-16.085-16.128-44.16-16.128-60.331 0l-182.699 182.699 60.331 60.331 182.699-182.699z" />
<glyph unicode="&#xe91a;" glyph-name="device-wireless" d="M251.008 710.272l-65.28 54.997c81.365 96.597 200.405 152.021 326.571 152.021 125.781 0 244.608-55.168 325.973-151.339l-65.152-55.083c-65.067 76.928-160.128 121.088-260.779 121.088-100.992 0-196.224-44.331-261.333-121.685zM648.917 592.939c-32.597 43.435-82.389 68.352-136.619 68.352-54.187 0-103.979-24.917-136.533-68.309l-68.267 51.285c48.853 65.024 123.52 102.357 204.8 102.357 81.365 0 156.032-37.333 204.885-102.485l-68.267-51.2zM597.333 21.291h-170.667c-70.571 0-128 57.429-128 128v256c0 70.571 57.429 128 128 128h170.667c70.571 0 128-57.429 128-128v-256c0-70.571-57.429-128-128-128zM426.667 447.957c-23.509 0-42.667-19.157-42.667-42.667v-256c0-23.509 19.157-42.667 42.667-42.667h170.667c23.509 0 42.667 19.157 42.667 42.667v256c0 23.509-19.157 42.667-42.667 42.667h-170.667zM565.333 234.709c0-29.455-23.878-53.333-53.333-53.333s-53.333 23.878-53.333 53.333c0 29.455 23.878 53.333 53.333 53.333s53.333-23.878 53.333-53.333z" />
<glyph unicode="&#xe91b;" glyph-name="devices" d="M512 106.624h-341.333v42.667h341.333v85.333h-341.333v426.667h512v-42.667h85.333v170.667c0 47.104-38.272 85.333-85.333 85.333h-512c-47.061 0-85.333-38.229-85.333-85.333v-682.667c0-47.104 38.272-85.333 85.333-85.333h341.333v85.333zM170.667 789.291h512v-42.667h-512v42.667zM853.333 533.291h-170.667c-47.061 0-85.333-38.229-85.333-85.333v-341.333c0-47.104 38.272-85.333 85.333-85.333h170.667c47.061 0 85.333 38.229 85.333 85.333v341.333c0 47.104-38.272 85.333-85.333 85.333zM853.333 447.957l0.043-213.333h-170.709v213.333h170.667zM682.667 106.624v42.667h170.709v-42.667h-170.709z" />
<glyph unicode="&#xe91c;" glyph-name="diamond" d="M933.035 554.496l-170.667 298.667c-7.595 13.312-21.717 21.504-37.035 21.504h-426.667c-15.317 0-29.44-8.192-37.035-21.504l-170.667-298.667c-8.789-15.317-7.168-34.517 4.053-48.171l384-469.376c8.064-9.899 20.224-15.659 32.981-15.659s24.917 5.717 32.981 15.659l384 469.376c11.221 13.653 12.843 32.853 4.053 48.171zM448.725 576l63.275 147.669 63.275-147.669h-126.549zM584.149 490.667l-72.149-264.533-72.107 264.533h144.256zM576.725 789.333h92.032l-36.821-128.896-55.211 128.896zM392.064 660.437l-36.821 128.896h92.032l-55.211-128.896zM327.424 576h-125.909l83.925 146.901 41.984-146.901zM351.403 490.667l66.688-244.523-200.064 244.523h133.376zM672.597 490.667h133.376l-200.021-244.523 66.645 244.523zM696.576 576l41.941 146.901 83.968-146.901h-125.909z" />
<glyph unicode="&#xe91d;" glyph-name="download-box" d="M810.667 831.957h-597.333c-47.104 0-85.333-38.229-85.333-85.333v-597.333c0-47.019 38.229-85.333 85.333-85.333h597.333c47.104 0 85.333 38.315 85.333 85.333v597.333c0 47.104-38.229 85.333-85.333 85.333zM810.539 149.291h-597.205v597.333h597.333l-0.128-597.333zM712.832 417.792l-60.331 60.331-97.835-97.835v281.003h-85.333v-281.003l-97.835 97.835-60.331-60.331 200.832-200.832z" />
<glyph unicode="&#xe91e;" glyph-name="email-envelope" d="M853.333 661.333h-682.667c-47.061 0-85.333-38.272-85.333-85.333v-384c0-47.061 38.272-85.333 85.333-85.333h682.667c47.061 0 85.333 38.272 85.333 85.333v384c0 47.061-38.272 85.333-85.333 85.333zM772.821 576l-260.821-162.987-260.821 162.987h521.643zM170.667 192v333.696l318.72-199.211c6.912-4.309 14.763-6.485 22.613-6.485s15.701 2.176 22.613 6.485l318.72 199.253 0.043-333.739h-682.709z" />
<glyph unicode="&#xe91f;" glyph-name="email-sign" d="M512 874.667c-235.264 0-426.667-191.403-426.667-426.667 0-235.307 191.403-426.667 426.667-426.667 86.997 0 170.368 25.685 241.152 74.283l-48.256 70.315c-56.576-38.741-123.221-59.264-192.896-59.264-188.203 0-341.333 153.131-341.333 341.333s153.131 341.333 341.333 341.333 341.333-153.131 341.333-341.333v-33.365c0-59.221-25.515-94.635-68.267-94.635l-0.085-0.768c-2.56 0.555-5.333 0.768-8.064 0.768h-8.917c-24.021 0-59.733 34.901-59.733 58.411v69.589c0 108.203-88.021 196.267-196.267 196.267s-196.267-88.021-196.267-196.267 88.021-196.267 196.267-196.267c52.651 0 100.267 21.077 135.552 54.912 27.691-40.789 74.795-71.979 120.448-71.979l0.085 0.811c2.645-0.555 5.419-0.811 8.235-0.811h8.747c91.819 0 153.6 72.277 153.6 179.968v33.365c0 235.264-191.403 426.667-426.667 426.667zM512 337.109c-61.184 0-110.933 49.749-110.933 110.933s49.749 110.933 110.933 110.933 110.933-49.749 110.933-110.933-49.749-110.933-110.933-110.933z" />
<glyph unicode="&#xe920;" glyph-name="faq" d="M469.333 618.667c-94.123 0-170.667-76.544-170.667-170.667h85.333c0 47.019 38.272 85.333 85.333 85.333s85.333-38.315 85.333-85.333c0-47.061-38.272-85.333-85.333-85.333h-42.667v-85.333h85.333v5.376c73.515 18.987 128 85.888 128 165.291 0 94.123-76.544 170.667-170.667 170.667zM512 192c0-23.564-19.103-42.667-42.667-42.667s-42.667 19.103-42.667 42.667c0 23.564 19.103 42.667 42.667 42.667s42.667-19.103 42.667-42.667zM657.664 917.333h-486.997c-47.061 0-85.333-38.315-85.333-85.333v-768c0-47.061 38.272-85.333 85.333-85.333h597.333c47.061 0 85.333 38.272 85.333 85.333v657.664l-195.669 195.669zM170.667 64v768h426.667v-170.667h170.667l0.043-597.333h-597.376z" />
<glyph unicode="&#xe921;" glyph-name="file-edit" d="M768 21.333h-597.333c-47.061 0-85.333 38.272-85.333 85.333v597.333c0 47.019 38.272 85.333 85.333 85.333h298.667v-85.333h-298.667v-597.333h597.333v384h85.333v-384c0-47.061-38.272-85.333-85.333-85.333zM418.475 517.76l120.661-120.619-150.827-30.165zM870.997 729.003c33.323 33.323 33.323 87.339 0 120.661s-87.339 33.323-120.661 0l-271.531-271.531 120.704-120.704 271.488 271.573z" />
<glyph unicode="&#xe922;" glyph-name="files" d="M742.997 960h-316.331c-47.061 0-85.333-38.315-85.333-85.333v-597.333c0-47.061 38.272-85.333 85.333-85.333h426.667c47.061 0 85.333 38.272 85.333 85.333v486.997l-195.669 195.669zM853.376 277.333h-426.709v597.333h256v-170.667h170.667l0.043-426.667zM298.667 832h-85.333v-682.667c0-47.061 38.272-85.333 85.333-85.333h512v85.333h-512v682.667zM170.667 704h-85.333v-682.667c0-47.061 38.272-85.333 85.333-85.333h512v85.333h-512v682.667z" />
<glyph unicode="&#xe923;" glyph-name="fire" d="M512 17.916c169.421 0 307.2 137.779 307.2 307.2 0 114.586-99.635 267.366-111.002 284.416-8.499 12.749-22.323 20.992-37.53 22.528-15.36 1.485-30.413-3.942-41.267-14.746l-66.202-66.202v234.803c0 20.685-12.493 39.373-31.59 47.309-19.2 7.936-41.216 3.584-55.808-11.11-11.11-11.059-271.002-273.562-271.002-496.998 0-169.421 137.779-307.2 307.2-307.2v0zM460.8 649.417v-221.901c0-20.685 12.493-39.373 31.59-47.309 19.098-7.885 41.114-3.533 55.808 11.162l107.213 107.162c28.672-52.378 61.389-124.058 61.389-173.414 0-112.947-91.904-204.8-204.8-204.8s-204.8 91.853-204.8 204.8c0 102.4 80.896 231.322 153.6 324.301v0z" />
<glyph unicode="&#xe924;" glyph-name="five-stars" d="M581.717 690.347l104.491 84.736h-130.645l-43.563 99.584-43.563-99.584h-130.645l104.491-84.736-34.773-114.347 104.491 78.549 104.491-78.549zM984.875 519.083h-130.645l-43.563 99.584-43.563-99.584h-130.645l104.491-84.736-34.773-114.347 104.491 78.549 104.491-78.549-34.773 114.347zM213.333 398.549l104.491-78.549-34.773 114.347 104.491 84.736h-130.645l-43.563 99.584-43.563-99.584h-130.645l104.491-84.736-34.773-114.347zM768.896 177.749l-43.563 99.584-43.563-99.584h-130.645l104.491-84.736-34.773-114.347 104.491 78.549 104.491-78.549-34.773 114.347 104.491 84.736zM342.229 177.749l-43.563 99.584-43.563-99.584h-130.645l104.491-84.736-34.773-114.347 104.491 78.549 104.491-78.549-34.773 114.347 104.491 84.736z" />
<glyph unicode="&#xe925;" glyph-name="flag" d="M883.499 606.123l-256 256c-16.683 16.683-43.648 16.683-60.331 0l-140.501-140.501-55.168 55.168c-16.683 16.683-43.648 16.683-60.331 0l-213.333-213.333c-16.683-16.683-16.683-43.648 0-60.331l469.333-469.333 60.331 60.331-183.168 183.168 67.669 67.627 55.168-55.168c8.32-8.32 19.243-12.501 30.165-12.501s21.845 4.181 30.165 12.501l256 256c16.683 16.683 16.683 43.691 0 60.373zM188.331 533.291l153.003 152.96 195.669-195.669-153.003-152.96-195.669 195.669zM640 422.955v67.669c0 10.923-4.181 21.845-12.501 30.165l-140.501 140.501 110.336 110.293 195.669-195.669-153.003-152.96z" />
<glyph unicode="&#xe926;" glyph-name="folder" d="M853.333 661.333h-352l-70.4 93.867c-16 21.376-41.557 34.133-68.267 34.133h-192c-47.061 0-85.333-38.315-85.333-85.333v-554.667c0-47.061 38.272-85.333 85.333-85.333h682.667c47.061 0 85.333 38.272 85.333 85.333v426.667c0 47.019-38.272 85.333-85.333 85.333zM170.667 149.333v554.667h192l70.4-93.867c16-21.376 41.557-34.133 68.267-34.133h352l0.043-426.667h-682.709z" />
<glyph unicode="&#xe927;" glyph-name="forum" d="M895.915-64l-227.584 170.667h-135.083c-35.285 0-64 28.715-64 64v298.667c0 35.285 28.715 64 64 64h426.667c35.285 0 64-28.715 64-64v-298.667c0-35.285-28.715-64-64-64h-64v-170.667zM554.581 192h142.251l113.749-85.333v85.333h128v256h-384v-256zM127.915 106.667v170.667h-64c-35.285 0-64 28.715-64 64v469.333c0 35.285 28.715 64 64 64h554.667c35.285 0 64-28.715 64-64v-191.915h-85.333v170.581h-512v-426.667h128v-85.333l113.749 85.333h56.917v-85.333h-28.416l-227.584-170.667z" />
<glyph unicode="&#xe928;" glyph-name="gallery" d="M896 191.957h-597.333c-23.595 0-42.667 19.115-42.667 42.667v597.333c0 23.552 19.072 42.667 42.667 42.667h597.333c23.595 0 42.667-19.115 42.667-42.667v-597.333c0-23.552-19.072-42.667-42.667-42.667zM341.333 277.291h512v512h-512v-512zM768 21.291h-640c-23.595 0-42.667 19.115-42.667 42.667v640h85.333v-597.333h597.333v-85.333zM554.667 661.291c0-47.128-38.205-85.333-85.333-85.333s-85.333 38.205-85.333 85.333c0 47.128 38.205 85.333 85.333 85.333s85.333-38.205 85.333-85.333zM682.667 575.957l-110.421-165.632-60.245 80.299-128-170.667h426.667z" />
<glyph unicode="&#xe929;" glyph-name="gift" d="M853.333 618.667h-132.907c19.243 9.984 37.504 22.229 52.736 37.504 49.92 49.877 49.92 131.072 0 180.992-48.384 48.341-132.608 48.341-180.992 0-69.845-69.845-79.317-201.301-80.171-216.064-0.853 14.805-10.325 146.261-80.171 216.064-48.384 48.341-132.693 48.299-180.992 0-24.149-24.149-37.504-56.32-37.504-90.496s13.355-66.347 37.504-90.496c15.232-15.275 33.451-27.477 52.736-37.504h-132.907c-47.104 0-85.333-38.272-85.333-85.333v-128c0-23.552 19.072-42.667 42.667-42.667v-256c0-47.061 38.229-85.333 85.333-85.333h597.333c47.104 0 85.333 38.272 85.333 85.333v256c23.595 0 42.667 19.115 42.667 42.667v128c0 47.061-38.229 85.333-85.333 85.333zM341.333 106.667h-128v256h128v-256zM341.333 448h-170.667v85.333h170.667v-85.333zM311.168 716.501c-8.064 8.064-12.501 18.773-12.501 30.165s4.437 22.101 12.501 30.165c8.064 8.064 18.731 12.459 30.165 12.459s22.101-4.437 30.165-12.501c25.173-25.131 39.851-70.272 47.701-107.947-37.547 7.893-82.987 22.571-108.032 47.659zM597.333 106.667h-170.667v256h170.667v-256zM597.333 448h-170.667v85.333h170.667v-85.333zM652.501 776.789c8.064 8.064 18.731 12.501 30.165 12.501s22.101-4.437 30.165-12.459c16.597-16.683 16.64-43.691 0-60.331-25.216-25.216-70.4-39.936-108.075-47.744 7.851 37.675 22.571 82.859 47.744 108.032zM810.667 106.667h-128v256h128v-256zM853.333 448h-170.667v85.333h170.667v-85.333z" />
<glyph unicode="&#xe92a;" glyph-name="globe" d="M512 874.667c-235.264 0-426.667-191.403-426.667-426.667s191.403-426.667 426.667-426.667 426.667 191.403 426.667 426.667-191.403 426.667-426.667 426.667zM341.333 743.125c38.571 22.4 81.835 37.419 128 43.221v-253.013h128v-149.333l-106.24-79.659-76.331 228.992h-73.429v209.792zM512 106.667c-188.203 0-341.333 153.131-341.333 341.333 0 86.229 32.384 164.864 85.333 225.024v-225.024h97.237l94.336-283.008 235.093 176.341v277.333h-128v167.723c168.107-21.12 298.667-164.651 298.667-338.389 0-188.203-153.131-341.333-341.333-341.333z" />
<glyph unicode="&#xe92b;" glyph-name="graph" d="M938.667 21.333v554.667c0 23.552-19.072 42.667-42.667 42.667h-170.667c-23.595 0-42.667-19.115-42.667-42.667v-554.667h-42.667v298.709c0 23.509-19.072 42.667-42.667 42.667h-170.667c-23.595 0-42.667-19.157-42.667-42.667v-298.709h-42.667v384.043c0 23.509-19.072 42.667-42.667 42.667h-170.667c-23.595 0-42.667-19.157-42.667-42.667v-384.043h-85.333v-85.333h1024v85.333h-85.333zM768 533.333h85.333v-511.957h-85.333v511.957zM469.333 277.376h85.333v-256h-85.333v256zM170.667 362.709h85.333v-341.333h-85.333v341.333z" />
<glyph unicode="&#xe92c;" glyph-name="installation" d="M837.205 547.328l-69.419-94.805c0-1.579 0.213-2.987 0.213-4.48 0-141.227-114.816-256-256-256s-256 114.773-256 256c0 141.184 114.816 256 256 256 24.704 0 48.512-3.712 71.125-10.283l52.053 71.083c-12.416 4.821-24.747 9.899-37.845 13.312v96.555h-170.667v-96.555c-38.443-10.027-74.411-26.112-106.368-47.915l-64.768 64.768-90.496-90.496 64.768-64.768c-21.803-32-37.931-67.925-47.915-106.368h-96.555v-170.667h96.555c9.941-38.528 26.112-74.411 47.915-106.368l-64.768-64.768 90.496-90.539 64.768 64.768c31.957-21.76 67.925-37.888 106.368-47.872v-96.555h170.667v96.555c38.443 9.941 74.411 26.112 106.368 47.872l64.768-64.768 90.496 90.539-64.768 64.768c21.803 31.957 37.931 67.84 47.915 106.368h96.555v170.667h-96.555c-1.237 4.821-3.456 9.216-4.907 13.952zM563.712 345.259l-205.312 153.941 51.2 68.309 136.021-102.016 315.861 434.304 69.035-50.176z" />
<glyph unicode="&#xe92d;" glyph-name="key" d="M865.792 517.845l60.331 60.331-120.619 120.661 60.288 60.288-60.331 60.331-400.597-400.853c-31.36 18.219-67.328 29.397-106.197 29.397-117.803 0-213.333-95.531-213.333-213.333s95.531-213.333 213.333-213.333 213.333 95.531 213.333 213.333c0 48-16.427 91.819-43.221 127.445l155.691 155.648 120.619-120.661 60.373 60.288-120.661 120.747 60.331 60.331 120.661-120.619zM298.667 106.667c-70.699 0-128 57.301-128 128s57.301 128 128 128 128-57.301 128-128-57.301-128-128-128z" />
<glyph unicode="&#xe92e;" glyph-name="laptop" d="M1008.299 118.016l-69.632 208.896v505.088c0 23.595-19.115 42.667-42.667 42.667h-768c-23.552 0-42.667-19.072-42.667-42.667v-505.088l-69.632-208.939c-7.936-23.808-4.693-48.213 8.875-67.029s35.712-29.611 60.757-29.611h853.333c25.045 0 47.189 10.795 60.757 29.568 13.568 18.859 16.811 43.264 8.875 67.115zM853.333 789.333v-426.667h-682.667v426.667h682.667zM101.888 106.667l56.875 170.667h706.517l56.875-170.667h-820.267zM426.667 234.667h170.667v-85.333h-170.667v85.333z" />
<glyph unicode="&#xe92f;" glyph-name="library" d="M896 789.333h-256c-23.595 0-42.667-19.115-42.667-42.667v-42.667h-170.667v128c0 23.552-19.072 42.667-42.667 42.667h-256c-23.595 0-42.667-19.157-42.667-42.667v-768c0-23.552 19.072-42.667 42.667-42.667h768c23.595 0 42.667 19.115 42.667 42.667v682.667c0 23.509-19.072 42.667-42.667 42.667zM170.667 789.333h170.667v-682.667h-170.667v682.667zM426.667 618.667h170.667v-512h-170.667v512zM853.333 106.667h-170.667v597.333h170.667v-597.333zM213.333 746.667h85.333v-341.333h-85.333v341.333zM469.333 576h85.333v-256h-85.333v256zM725.333 661.333h85.333v-298.667h-85.333v298.667z" />
<glyph unicode="&#xe930;" glyph-name="lightbulb" d="M384-21.333h85.333v-42.667h85.333v42.667h85.333v85.333h-256zM512 746.667c-164.651 0-298.667-133.973-298.667-298.667 0-115.797 67.456-220.587 170.667-269.611v-29.056c0-23.552 19.072-42.667 42.667-42.667h170.667c23.595 0 42.667 19.115 42.667 42.667v29.056c103.211 48.981 170.667 153.771 170.667 269.611 0 164.693-134.016 298.667-298.667 298.667zM583.083 247.083c-16.981-6.016-28.416-22.144-28.416-40.192v-14.891h-85.333v14.891c0 18.091-11.435 34.176-28.416 40.192-85.077 30.123-142.251 110.891-142.251 200.917 0 117.632 95.701 213.333 213.333 213.333s213.333-95.701 213.333-213.333c0-90.027-57.173-170.795-142.251-200.917zM469.333 960h85.333v-170.667h-85.333v170.667zM0 490.667h170.667v-85.333h-170.667v85.333zM853.333 490.667h170.667v-85.333h-170.667v85.333zM865.781 862.156l60.318-60.301-127.992-128.028-60.318 60.301 127.992 128.028zM158.18 862.164l128.010-128.010-60.309-60.309-128.010 128.010 60.309 60.309z" />
<glyph unicode="&#xe931;" glyph-name="link" d="M149.931 267.648l60.331 60.331-30.165 30.165c-16.64 16.64-16.64 43.691 0 60.373l362.069 362.027c8.021 8.064 18.731 12.501 30.165 12.501s22.101-4.437 30.208-12.501l30.165-30.165 60.288 60.288-30.123 30.165c-48.384 48.384-132.736 48.384-181.035 0l-362.027-361.984c-49.92-49.92-49.92-131.115 0-181.035l30.123-30.165zM904.192 599.424l-30.208 30.165-60.331-60.331 30.208-30.165c8.064-8.064 12.459-18.731 12.459-30.165 0-11.349-4.437-22.059-12.459-30.123l-362.027-362.069c-16.128-16.085-44.245-16.085-60.373 0l-30.165 30.165-60.331-60.288 30.165-30.165c24.192-24.192 56.32-37.504 90.539-37.504 34.176 0 66.304 13.312 90.496 37.504l362.027 362.027c24.149 24.149 37.461 56.277 37.461 90.453s-13.312 66.347-37.461 90.496zM843.826 840.832l60.339-60.339-301.696-301.696-60.339 60.339 301.696 301.696zM421.449 418.518l60.318-60.301-301.683-301.769-60.318 60.301 301.683 301.769z" />
<glyph unicode="&#xe932;" glyph-name="list" d="M213.333 874.667c-70.571 0-128-57.387-128-128s57.429-128 128-128 128 57.429 128 128-57.429 128-128 128zM213.333 704c-23.509 0-42.667 19.157-42.667 42.667s19.157 42.667 42.667 42.667c23.552 0 42.667-19.157 42.667-42.667s-19.115-42.667-42.667-42.667zM213.333 576c-70.571 0-128-57.429-128-128s57.429-128 128-128 128 57.429 128 128-57.429 128-128 128zM213.333 405.333c-23.509 0-42.667 19.157-42.667 42.667s19.157 42.667 42.667 42.667c23.552 0 42.667-19.157 42.667-42.667s-19.115-42.667-42.667-42.667zM213.333 277.333c-70.571 0-128-57.429-128-128s57.429-128 128-128 128 57.429 128 128-57.429 128-128 128zM213.333 106.667c-23.509 0-42.667 19.157-42.667 42.667s19.157 42.667 42.667 42.667c23.552 0 42.667-19.157 42.667-42.667s-19.115-42.667-42.667-42.667zM426.667 789.333h512v-85.333h-512v85.333zM426.667 490.667h512v-85.333h-512v85.333zM426.667 192h512v-85.333h-512v85.333z" />
<glyph unicode="&#xe933;" glyph-name="lock-unlock" d="M725.333 490.667h-341.333v170.667c0 70.571 57.429 128 128 128s128-57.429 128-128v-42.667h85.333v42.667c0 117.632-95.701 213.333-213.333 213.333s-213.333-95.701-213.333-213.333v-170.667c-47.104 0-85.333-38.229-85.333-85.333v-298.667c0-47.061 38.229-85.333 85.333-85.333h426.667c47.104 0 85.333 38.272 85.333 85.333v298.667c0 47.104-38.229 85.333-85.333 85.333zM298.667 106.667v298.667h426.667l0.085-298.667h-426.752zM576 256c0-35.346-28.654-64-64-64s-64 28.654-64 64c0 35.346 28.654 64 64 64s64-28.654 64-64z" />
<glyph unicode="&#xe934;" glyph-name="lock" d="M576 256c0-35.346-28.654-64-64-64s-64 28.654-64 64c0 35.346 28.654 64 64 64s64-28.654 64-64zM725.333 490.667v170.667c0 117.632-95.701 213.333-213.333 213.333s-213.333-95.701-213.333-213.333v-170.667c-47.104 0-85.333-38.229-85.333-85.333v-298.667c0-47.061 38.229-85.333 85.333-85.333h426.667c47.104 0 85.333 38.272 85.333 85.333v298.667c0 47.104-38.229 85.333-85.333 85.333zM384 661.333c0 70.571 57.429 128 128 128s128-57.429 128-128v-170.667h-256v170.667zM298.667 106.667v298.667h426.667l0.085-298.667h-426.752z" />
<glyph unicode="&#xe935;" glyph-name="magic-wand" d="M930.091 439.808l-136.917 136.875 84.864 176.555c7.851 16.299 4.523 35.84-8.277 48.683-12.8 12.757-32.256 16.128-48.683 8.235l-176.469-84.864-136.875 136.917c-13.099 13.099-33.152 16.299-49.621 7.808-16.469-8.405-25.643-26.539-22.699-44.8l30.080-185.259-185.472-93.568c-16.512-8.363-25.813-26.368-22.912-44.629 2.859-18.304 17.195-32.725 35.499-35.584l156.416-24.747-393.813-393.856 60.288-60.373 393.813 393.899 24.789-156.416c2.901-18.304 17.28-32.597 35.541-35.499 2.219-0.384 4.437-0.512 6.613-0.512 15.915 0 30.763 8.917 38.101 23.467l93.483 185.472 185.216-30.080c18.176-2.944 36.395 6.229 44.8 22.656 8.491 16.469 5.333 36.523-7.765 49.621zM690.688 486.827c-18.347 2.987-36.523-6.272-44.928-22.912l-48-95.275-17.195 108.459c-2.901 18.304-17.195 32.64-35.499 35.499l-108.459 17.195 95.275 48.043c16.64 8.363 25.899 26.539 22.912 44.885l-13.909 85.589 64.853-64.811c12.8-12.8 32.256-16.171 48.683-8.277l94.080 45.269-45.355-94.123c-7.851-16.341-4.523-35.84 8.277-48.683l64.811-64.768-85.547 13.909z" />
<glyph unicode="&#xe936;" glyph-name="magnifier" d="M926.165 94.165l-230.101 230.101c46.464 59.563 71.936 132.309 71.936 209.067 0 91.179-35.541 176.896-100.011 241.323-64.427 64.512-150.144 100.011-241.323 100.011s-176.896-35.499-241.323-100.011c-64.469-64.427-100.011-150.144-100.011-241.323s35.541-176.896 100.011-241.323c64.427-64.512 150.144-100.011 241.323-100.011 76.757 0 149.504 25.429 209.067 71.936l230.101-230.059 60.331 60.288zM426.667 277.333c-68.395 0-132.651 26.624-180.992 74.965-48.384 48.341-75.008 112.64-75.008 181.035 0 68.352 26.624 132.651 75.008 180.992 48.341 48.384 112.597 75.008 180.992 75.008s132.651-26.624 180.992-75.008c48.384-48.341 75.008-112.64 75.008-180.992 0-68.395-26.624-132.693-75.008-181.035-48.341-48.341-112.597-74.965-180.992-74.965z" />
<glyph unicode="&#xe937;" glyph-name="map-marker" d="M512 448c-70.571 0-128 57.429-128 128s57.429 128 128 128 128-57.429 128-128-57.429-128-128-128zM512 618.667c-23.509 0-42.667-19.157-42.667-42.667 0-23.552 19.157-42.667 42.667-42.667s42.667 19.115 42.667 42.667c0 23.509-19.157 42.667-42.667 42.667zM512-7.125c-100.651 134.272-298.667 415.189-298.667 583.125 0 164.693 133.973 298.667 298.667 298.667s298.667-133.973 298.667-298.667c0-167.936-198.016-448.896-298.667-583.125zM512 789.333c-117.632 0-213.333-95.701-213.333-213.333 0-110.549 132.565-323.541 213.333-439.083 80.725 115.584 213.333 328.619 213.333 439.083 0 117.632-95.701 213.333-213.333 213.333z" />
<glyph unicode="&#xe938;" glyph-name="map" d="M877.013 199.168c11.861 7.893 18.987 21.248 18.987 35.499v597.333c0 15.744-8.661 30.208-22.528 37.589-13.867 7.467-30.72 6.656-43.776-2.091l-230.059-153.387-188.971 151.211c-6.4 4.992-16 8.661-25.173 9.003-8.789 0.341-18.56-2.475-25.173-6.827l-256-170.667c-11.861-7.936-18.987-21.291-18.987-35.499v-597.333c0-15.744 8.661-30.208 22.528-37.632 6.315-3.413 13.227-5.035 20.139-5.035 8.277 0 16.512 2.389 23.68 7.168l230.059 153.344 188.971-151.168c7.68-6.187 17.109-9.344 26.624-9.344 11.349 0 16.853 3.115 23.424 7.509l256.256 170.325zM170.667 638.507l170.667 113.749v-494.763l-170.667-113.792v494.805zM554.667 152.747l-128 102.4v488.021l128-102.357v-488.064zM810.667 257.493l-170.667-113.792v494.805l170.667 113.749v-494.763z" />
<glyph unicode="&#xe939;" glyph-name="music" d="M834.603 824.661c-11.733 7.979-26.624 9.557-39.765 4.309l-426.667-170.667c-16.213-6.528-26.837-22.229-26.837-39.637v-271.019c-19.499 9.344-41.003 15.019-64 15.019-82.347 0-149.333-66.987-149.333-149.333s66.987-149.333 149.333-149.333 149.333 66.987 149.333 149.333v376.405l341.333 136.533v-250.624c-19.499 9.344-41.003 15.019-64 15.019-82.347 0-149.333-66.987-149.333-149.333s66.987-149.333 149.333-149.333 149.333 66.987 149.333 149.333v448c0 14.165-7.040 27.392-18.731 35.328zM277.333 149.333c-35.285 0-64 28.715-64 64s28.715 64 64 64 64-28.715 64-64-28.715-64-64-64zM704 277.333c-35.285 0-64 28.715-64 64s28.715 64 64 64 64-28.715 64-64-28.715-64-64-64z" />
<glyph unicode="&#xe93a;" glyph-name="newspaper" d="M853.333 21.291h-768c-23.595 0-42.667 19.115-42.667 42.667v768c0 23.552 19.072 42.667 42.667 42.667h682.667c23.595 0 42.667-19.115 42.667-42.667v-128h128c23.595 0 42.667-19.115 42.667-42.667v-512c0-11.307-4.48-22.187-12.501-30.165l-85.333-85.333c-7.979-8.021-18.816-12.501-30.165-12.501zM810.667 106.624h25.003l60.331 60.331v451.669h-85.333v-512zM128 106.624h597.333v682.667h-597.333v-682.667zM213.333 703.957h384v-128h-384v128zM213.333 533.291h170.667v-85.333h-170.667v85.333zM426.667 533.291h170.667v-85.333h-170.667v85.333zM213.333 405.291h170.667v-85.333h-170.667v85.333zM426.667 405.291h170.667v-85.333h-170.667v85.333zM213.333 277.291h170.667v-85.333h-170.667v85.333zM426.667 277.291h170.667v-85.333h-170.667v85.333z" />
<glyph unicode="&#xe93b;" glyph-name="nonstop" d="M109.696 636.971c-60.501 0-109.696-49.237-109.696-109.696v-36.608h73.173v36.565c0 20.139 16.427 36.565 36.523 36.565 20.181 0 36.565-16.427 36.565-36.565 0-35.755-70.357-128.341-135.595-193.579-10.453-10.453-13.568-26.24-7.936-39.851 5.675-13.653 18.987-22.571 33.792-22.571h182.827v73.131h-99.499c45.525 53.675 99.584 128.853 99.584 182.869 0 60.501-49.237 109.739-109.739 109.739zM438.827 600.363c0 16.085-10.496 30.293-25.941 34.987-15.36 4.736-32.043-1.323-41.045-14.72l-146.261-219.435c-7.509-11.221-8.149-25.643-1.835-37.547 6.4-11.861 18.773-19.285 32.256-19.285h109.696v-73.173h73.131v73.173h36.565v73.131h-36.565v182.869zM365.696 417.536h-41.387l41.387 62.037v-62.037zM1017.728 620.843c-6.784 10.069-18.133 16.043-30.293 16.043h-182.827v-73.088h128.853l-116.992-292.608h78.763l126.251 315.563c4.437 11.264 3.029 24.064-3.755 34.091zM511.787 234.667h78.805l175.531 438.827h-78.805z" />
<glyph unicode="&#xe93c;" glyph-name="office-hours" d="M274.304 484.523h73.173v36.608c0 20.139 16.427 36.565 36.523 36.565 20.181 0 36.565-16.427 36.565-36.565 0-35.712-70.357-128.299-135.595-193.621-10.453-10.496-13.568-26.155-7.936-39.851s18.987-22.571 33.792-22.571h182.827v73.045h-99.541c45.525 53.803 99.584 128.896 99.584 182.955 0 60.459-49.195 109.696-109.696 109.696s-109.696-49.195-109.696-109.696v-36.565zM687.147 629.248c-15.36 4.779-32.043-1.323-41.045-14.72l-146.261-219.392c-7.509-11.221-8.149-25.643-1.835-37.547 6.357-11.904 18.731-19.371 32.256-19.371h109.739v-73.088h73.131v73.088h36.565v73.173h-36.565v182.827c0 16.171-10.496 30.379-25.984 35.029zM640 411.392h-41.387l41.387 62.080v-62.080zM512 960c-44.245 0-86.997-6.229-128-16.853v-88.192c40.405 12.757 83.413 19.712 128 19.712 235.264 0 426.667-191.403 426.667-426.667 0-235.307-191.403-426.667-426.667-426.667s-426.667 191.36-426.667 426.667c0 118.955 49.152 226.389 128 303.744v-133.077h85.333v256h-256v-85.333h88.661c-81.408-90.667-131.328-210.133-131.328-341.333 0-282.325 229.675-512 512-512s512 229.675 512 512-229.675 512-512 512z" />
<glyph unicode="&#xe93d;" glyph-name="page" d="M657.664 874.667h-401.664c-47.061 0-85.333-38.315-85.333-85.333v-682.667c0-47.061 38.272-85.333 85.333-85.333h512c47.061 0 85.333 38.272 85.333 85.333v572.331l-195.669 195.669zM768.043 106.667h-512.043v682.667h341.333v-170.667h170.667l0.043-512z" />
<glyph unicode="&#xe93e;" glyph-name="phone" d="M853.333 21.333h-213.333c-282.283 0-512 229.675-512 512v213.333c0 47.104 38.272 85.333 85.333 85.333h170.667c47.061 0 85.333-38.229 85.333-85.333v-170.667c0-45.739-36.181-83.157-81.408-85.248 18.645-110.251 100.992-192.853 209.451-210.091 1.792 45.525 39.381 82.005 85.291 82.005h170.667c47.061 0 85.333-38.229 85.333-85.333v-170.667c0-47.104-38.229-85.333-85.333-85.333zM213.333 746.667v-213.333c0-235.264 191.403-426.667 426.667-426.667h213.376l-0.043 170.667h-170.667v-42.667c0-23.595-19.115-42.667-42.667-42.667-191.488 0-338.261 146.475-341.333 340.651-0.128 11.435 4.267 22.443 12.288 30.592s18.944 12.757 30.379 12.757h42.667v170.667h-170.667z" />
<glyph unicode="&#xe93f;" glyph-name="phone-circle" d="M512 874.667c-235.221 0-426.667-191.403-426.667-426.667s191.403-426.667 426.667-426.667 426.667 191.403 426.667 426.667-191.403 426.667-426.667 426.667zM512 106.667c-188.203 0-341.333 153.131-341.333 341.333s153.131 341.333 341.333 341.333 341.333-153.131 341.333-341.333-153.088-341.333-341.333-341.333zM688.085 372.139l-91.563 0.043c-12.757 0-22.997-10.283-22.997-22.955l0.043-44.672c-110.677 5.931-199.040 94.336-204.885 204.971h44.587c12.629 0 22.912 10.24 22.912 22.912l-0.043 91.648c0.043 12.629-10.24 22.827-22.869 22.869l-91.605 0.043c-12.672-0.085-22.955-10.283-22.997-22.955l0.043-114.56h0.683c5.845-148.651 125.44-268.288 274.219-274.219v-0.597h114.475c12.629 0.043 22.912 10.283 22.955 22.955l-0.043 91.605c0 12.629-10.283 22.912-22.912 22.912z" />
<glyph unicode="&#xe940;" glyph-name="photo" d="M512 618.709c-117.632 0-213.333-95.701-213.333-213.333 0-117.675 95.701-213.333 213.333-213.333s213.333 95.659 213.333 213.333c0 117.675-95.701 213.333-213.333 213.333zM512 277.376c-70.571 0-128 57.429-128 128s57.429 128 128 128 128-57.429 128-128c0-70.571-57.429-128-128-128zM853.333 704.043h-147.84l-59.989 89.984c-15.872 23.808-42.411 38.016-70.997 38.016h-125.013c-28.587 0-55.125-14.208-70.997-38.016l-59.989-89.984h-147.84c-47.061 0-85.333-38.272-85.333-85.333v-469.333c0-47.061 38.272-85.333 85.333-85.333h682.667c47.061 0 85.333 38.272 85.333 85.333v469.333c0 47.061-38.272 85.333-85.333 85.333zM170.667 149.376v469.333h193.493l85.333 128h125.013l85.333-128h193.493l0.043-469.333h-682.709z" />
<glyph unicode="&#xe941;" glyph-name="picture" d="M861.091 789.333h-698.182c-42.783 0-77.576-29.574-77.576-65.939v-527.515c0-36.366 34.793-65.939 77.576-65.939h698.182c42.822 0 77.576 29.574 77.576 65.939v527.515c0 36.366-34.754 65.939-77.576 65.939v0zM162.909 207.515v504.242h698.143l-0.078-504.242h-698.065zM473.212 362.667l-77.576 77.576-116.364-155.152h465.455l-155.152 232.727zM434.424 556.606c0-42.844-34.732-77.576-77.576-77.576s-77.576 34.732-77.576 77.576c0 42.844 34.732 77.576 77.576 77.576s77.576-34.732 77.576-77.576z" />
<glyph unicode="&#xe942;" glyph-name="play" d="M512 874.667c-235.264 0-426.667-191.403-426.667-426.667 0-235.307 191.403-426.667 426.667-426.667s426.667 191.36 426.667 426.667c0 235.264-191.403 426.667-426.667 426.667zM512 106.667c-188.203 0-341.333 153.131-341.333 341.333s153.131 341.333 341.333 341.333 341.333-153.131 341.333-341.333-153.131-341.333-341.333-341.333zM426.667 277.333l256 170.667-256 170.667z" />
<glyph unicode="&#xe943;" glyph-name="plug" d="M576 426.667c0-35.346-28.654-64-64-64s-64 28.654-64 64c0 35.346 28.654 64 64 64s64-28.654 64-64zM768 746.667h-85.333v128h-85.333v-128h-170.667v128h-85.333v-128h-85.333c-47.061 0-85.333-38.229-85.333-85.333v-128c0-173.739 130.56-317.269 298.667-338.389v-130.944h85.333v130.944c168.107 21.12 298.667 164.608 298.667 338.389v128c0 47.104-38.272 85.333-85.333 85.333zM768 661.333v-42.667h-512v42.667h512zM512 277.333c-141.184 0-256 114.816-256 256h512c0-141.184-114.816-256-256-256z" />
<glyph unicode="&#xe944;" glyph-name="plugins" d="M959.659 442.411c-4.139 2.347-187.264 75.349-191.659 77.141v205.781c0 14.763-7.68 28.501-20.267 36.267-2.261 1.451-214.229 107.349-216.661 108.544-11.989 6.016-26.155 6.016-38.187 0-2.432-1.237-214.4-107.093-216.661-108.544-12.544-7.765-20.224-21.504-20.224-36.267v-205.781c-4.437-1.792-187.563-74.795-191.659-77.141-13.44-7.552-21.675-21.76-21.675-37.077v-256c0-15.019 7.851-28.928 20.693-36.608l213.333-128c6.741-4.053 14.336-6.059 21.973-6.059 5.333 0 10.752 0.939 15.829 2.987l197.504 79.019 197.504-79.019c5.077-2.048 10.496-2.987 15.829-2.987 7.637 0 15.232 2.005 21.973 6.059l213.333 128c12.843 7.68 20.693 21.589 20.693 36.608v256c0 15.317-8.235 29.525-21.675 37.077zM721.493 324.779l-113.749 45.525 121.429 72.832 113.749-45.483-121.429-72.875zM682.667 514.816l-128-76.843v154.283l128 64v-141.44zM469.333 438.016l-128 76.843v141.397l128-64v-154.24zM294.827 443.179l121.429-72.832-113.749-45.568-121.429 72.875 113.749 45.525zM341.333 248.405l128 51.2v-164.096l-128-51.2v164.096zM512 784.256l117.931-58.923-117.931-59.008-117.931 59.008 117.931 58.923zM128 329.941l128-76.8v-156.501l-128 76.843v156.459zM554.667 299.605l128-51.2v-164.096l-128 51.2v164.096zM768 96.683v156.501l128 76.8v-156.459l-128-76.843z" />
<glyph unicode="&#xe945;" glyph-name="plus-circle" d="M512 874.624c-235.264 0-426.667-191.403-426.667-426.667s191.403-426.667 426.667-426.667 426.667 191.403 426.667 426.667-191.403 426.667-426.667 426.667zM512 106.624c-188.203 0-341.333 153.131-341.333 341.333s153.131 341.333 341.333 341.333 341.333-153.131 341.333-341.333-153.131-341.333-341.333-341.333zM554.667 661.291h-85.333v-170.667h-170.667v-85.333h170.667v-170.667h85.333v170.667h170.667v85.333h-170.667z" />
<glyph unicode="&#xe946;" glyph-name="post" d="M256 661.333h256v-85.333h-256v85.333zM256 490.667h256v-85.333h-256v85.333zM256 320h512v-85.333h-512v85.333zM853.333 874.667h-682.667c-47.061 0-85.333-38.272-85.333-85.333v-682.667c0-47.061 38.272-85.333 85.333-85.333h682.667c47.061 0 85.333 38.272 85.333 85.333v682.667c0 47.061-38.272 85.333-85.333 85.333zM853.205 106.667h-682.539v682.667h682.667l-0.128-682.667zM597.333 661.333h170.667v-256h-170.667v256z" />
<glyph unicode="&#xe947;" glyph-name="quality" d="M960.64 356.565l-161.152 96.725c7.083 25.515 11.179 52.309 11.179 80.043 0 164.651-134.016 298.667-298.667 298.667s-298.667-134.016-298.667-298.667c0-27.733 4.096-54.528 11.221-80.043l-161.152-96.725c-12.587-7.467-20.395-20.949-20.736-35.584-0.341-14.592 6.827-28.373 18.987-36.48l120.917-80.597 80.597-120.917c7.68-11.52 20.48-18.603 34.347-18.987 0.341 0 0.725 0 1.152 0 13.397 0 26.069 6.272 34.133 17.067l119.723 159.573c19.243-3.883 39.083-5.973 59.477-5.973s40.235 2.091 59.52 6.016l119.68-159.616c8.021-10.795 20.693-17.067 34.133-17.067 0.427 0 0.811 0 1.152 0 13.824 0.427 26.667 7.509 34.347 18.987l80.597 120.917 120.917 80.597c12.16 8.107 19.328 21.931 18.987 36.48-0.341 14.635-8.149 28.117-20.693 35.584zM300.715 180.48l-51.883 77.824c-3.115 4.693-7.168 8.704-11.819 11.819l-71.936 47.915 94.336 56.576c27.136-43.008 64.683-78.805 109.397-103.339l-68.096-90.795zM298.667 533.333c0 117.632 95.701 213.333 213.333 213.333s213.333-95.701 213.333-213.333c0-117.675-95.701-213.333-213.333-213.333s-213.333 95.659-213.333 213.333zM786.987 270.165c-4.651-3.115-8.704-7.125-11.819-11.819l-51.883-77.824-68.139 90.837c44.757 24.533 82.304 60.331 109.397 103.339l94.336-56.576-71.893-47.957zM554.667 597.333l-42.667 128-42.667-128h-128l85.333-85.333-42.667-128 128 85.333 128-85.333-42.667 128 85.333 85.333z" />
<glyph unicode="&#xe948;" glyph-name="recycle" d="M933.205 127.573l-144.384 256.683-74.368-41.813 108.587-193.109h-140.373v85.333l-170.667-128 170.667-128v85.333h213.333c15.147 0 29.184 8.021 36.821 21.12 7.637 13.056 7.808 29.269 0.384 42.453zM512 702.293l88.875-158.037-76.288-46.208 197.845-79.787 21.205 212.437-69.717-42.197-124.715 221.739c-15.104 26.88-59.264 26.88-74.368 0l-145.621-258.859 74.368-41.813 108.416 192.725zM278.912 287.829l75.776-38.912-35.755 210.261-191.957-93.269 75.947-39.040-112.128-199.296c-7.424-13.227-7.296-29.397 0.341-42.453 7.68-13.099 21.717-21.12 36.864-21.12h341.333v85.333h-268.373l77.952 138.496z" />
<glyph unicode="&#xe949;" glyph-name="rocket" d="M938.667 874.667c-13.824 13.781-34.773 20.224-65.92 20.224-62.379 0-184.704-29.44-265.941-110.72l-168.533-168.491h-283.989c-11.307 0-22.187-4.523-30.208-12.501l-30.165-30.208c-16.64-16.683-16.64-43.691 0-60.373l482.731-482.688c8.32-8.32 19.243-12.501 30.165-12.501s21.845 4.181 30.165 12.501l30.208 30.165c8.021 8.021 12.459 18.859 12.459 30.208v284.032l168.533 168.533c61.355 61.312 88.405 140.501 99.029 182.144 8.619 33.835 25.045 116.096-8.533 149.675zM352.981 530.347l-78.037-78.037-78.080 78.037h156.117zM335.275 391.936l301.696 301.696 120.661-120.619-301.653-301.739-120.704 120.661zM594.347 132.907l-78.037 77.995 78.037 78.080v-156.075zM814.976 636.331l-114.688 114.688c59.733 41.941 133.675 58.539 172.459 58.539 0.427 0 0.811 0 1.195 0 0.512-34.389-15.488-111.275-58.965-173.227zM335.232 150.571c-19.2-19.157-92.459-35.755-164.437-43.733 8.149 72.235 25.045 145.749 43.776 164.437 11.008 11.051 24.448 18.048 38.528 21.803l-64.427 64.427c-12.203-7.168-23.979-15.403-34.432-25.856-58.581-58.624-70.869-234.581-72.747-269.269l-2.56-47.445 47.488 2.56c34.688 1.877 210.645 14.251 269.184 72.789 10.496 10.496 18.688 22.229 25.856 34.475l-64.427 64.469c-3.712-14.208-10.709-27.563-21.803-38.656z" />
<glyph unicode="&#xe94a;" glyph-name="settings-box" d="M810.667 64h-597.333c-47.104 0-85.333 38.272-85.333 85.333v597.333c0 47.019 38.229 85.333 85.333 85.333h597.333c47.104 0 85.333-38.315 85.333-85.333v-597.333c0-47.019-38.229-85.333-85.333-85.333zM213.333 746.667v-597.333h597.419l-0.085 597.333h-597.333zM768 405.333v85.333h-91.435c-4.011 15.488-10.155 30.037-18.091 43.477l64.683 64.683-60.331 60.373-64.64-64.683c-13.525 7.936-28.032 14.080-43.52 18.091v91.392h-85.333v-91.392c-15.488-4.053-29.995-10.155-43.52-18.133l-64.64 64.725-60.331-60.331 64.64-64.683c-7.893-13.483-14.080-27.989-18.048-43.52h-91.435v-85.333h91.435c4.011-15.488 10.155-30.037 18.091-43.477l-64.683-64.725 60.331-60.331 64.683 64.683c13.483-7.936 27.989-14.080 43.52-18.133v-91.349h85.333v91.392c15.488 4.053 29.995 10.197 43.52 18.133l64.683-64.683 60.331 60.331-64.683 64.725c7.936 13.44 14.080 27.947 18.091 43.477h91.349zM512 362.667c-47.104 0-85.333 38.272-85.333 85.333 0 47.019 38.229 85.333 85.333 85.333s85.333-38.315 85.333-85.333c0-47.019-38.229-85.333-85.333-85.333z" />
<glyph unicode="&#xe94b;" glyph-name="settings" d="M810.667 576.043c70.571 0 128 57.429 128 128s-57.429 128-128 128c-55.552 0-102.443-35.755-120.107-85.333h-605.227v-85.333h605.227c17.664-49.579 64.555-85.333 120.107-85.333zM810.667 746.709c23.509 0 42.667-19.157 42.667-42.667 0-23.595-19.157-42.667-42.667-42.667s-42.667 19.072-42.667 42.667c0 23.509 19.157 42.667 42.667 42.667zM384 576.043c-55.552 0-102.443-35.755-120.107-85.333h-178.56v-85.333h178.56c17.664-49.579 64.597-85.333 120.107-85.333s102.443 35.755 120.107 85.333h434.56v85.333h-434.56c-17.664 49.579-64.555 85.333-120.107 85.333zM384 405.376c-23.509 0-42.667 19.072-42.667 42.667 0 23.509 19.157 42.667 42.667 42.667s42.667-19.157 42.667-42.667c0-23.595-19.157-42.667-42.667-42.667zM810.667 320.043c-55.552 0-102.443-35.755-120.107-85.333h-605.227v-85.333h605.227c17.664-49.579 64.597-85.333 120.107-85.333 70.571 0 128 57.429 128 128s-57.429 128-128 128zM810.667 149.376c-23.509 0-42.667 19.072-42.667 42.667 0 23.509 19.157 42.667 42.667 42.667s42.667-19.157 42.667-42.667c0-23.595-19.157-42.667-42.667-42.667z" />
<glyph unicode="&#xe94c;" glyph-name="shopping-basket" d="M938.667 533.333h-145.92l-158.379 277.205-74.069-42.325 134.187-234.88h-364.971l134.229 234.837-74.112 42.325-158.379-277.163h-145.92v-85.333h51.072l77.909-350.592c4.352-19.541 21.675-33.408 41.685-33.408h512c20.011 0 37.333 13.909 41.685 33.408l77.909 350.592h51.072v85.333zM733.739 149.333h-443.477l-66.432 298.667h576.341l-66.432-298.667zM469.333 405.333h85.333v-213.333h-85.333v213.333zM597.333 405.333h85.333v-213.333h-85.333v213.333zM341.333 405.333h85.333v-213.333h-85.333v213.333z" />
<glyph unicode="&#xe94d;" glyph-name="shutter" d="M512 874.709c-235.264 0-426.667-191.36-426.667-426.667s191.403-426.624 426.667-426.624 426.667 191.317 426.667 426.624-191.403 426.667-426.667 426.667zM807.125 618.709h-319.744l94.379 163.413c96.256-20.053 177.493-80.939 225.365-163.413zM635.179 448.043l-49.28-85.333h-147.797l-49.237 85.333 49.28 85.333h147.797l49.237-85.333zM486.656 788.096l-147.072-254.72-81.792 141.653c57.259 64.085 138.069 106.368 228.864 113.067zM204.885 596.011l134.656-233.301h-157.653c-7.040 27.349-11.221 55.851-11.221 85.333 0 53.035 12.501 103.125 34.219 147.968zM216.875 277.376h319.787l-94.379-163.456c-96.256 20.096-177.493 80.939-225.408 163.456zM537.429 107.989l147.029 254.72 81.792-141.653c-57.301-64-138.069-106.283-228.821-113.067zM819.115 300.117l-134.656 233.301h157.653c7.083-27.349 11.221-55.851 11.221-85.333 0-53.12-12.501-103.168-34.219-147.968z" />
<glyph unicode="&#xe94e;" glyph-name="signal" d="M569.685 385.493c16.896 15.573 27.648 37.717 27.648 62.507 0 47.104-38.229 85.333-85.333 85.333-47.147 0-85.333-38.229-85.333-85.333 0-24.747 10.752-46.933 27.648-62.507l-193.835-387.755c-6.571-13.227-5.931-28.928 1.877-41.515s21.504-20.224 36.309-20.224h426.667c14.805 0 28.501 7.68 36.309 20.267s8.448 28.288 1.877 41.515l-193.835 387.712zM570.965 192h-117.931l58.965 117.888 58.965-117.888zM367.701 21.333l42.667 85.333h203.264l42.667-85.333h-288.597zM874.027 809.984c-96.683 96.725-225.28 150.016-362.027 150.016s-265.344-53.291-362.027-150.016c-96.725-96.683-149.973-225.237-149.973-361.984s53.248-265.344 149.973-362.069l60.331 60.331c-80.597 80.555-124.971 187.776-124.971 301.739 0 114.005 44.373 221.099 124.971 301.653 80.597 80.597 187.733 125.013 301.696 125.013s221.099-44.373 301.696-125.013c80.597-80.597 124.971-187.691 124.971-301.653s-44.373-221.099-124.971-301.653l60.331-60.331c96.725 96.64 149.973 225.195 149.973 361.984s-53.248 265.301-149.973 361.984zM512 746.667c-164.651 0-298.667-133.973-298.667-298.667 0-38.016 7.253-75.349 21.504-110.933l79.232 31.829c-10.24 25.429-15.403 52.011-15.403 79.104 0 117.675 95.701 213.333 213.333 213.333s213.333-95.659 213.333-213.333c0-27.093-5.163-53.717-15.317-79.104l79.147-31.829c14.251 35.584 21.504 72.875 21.504 110.933 0 164.693-134.016 298.667-298.667 298.667z" />
<glyph unicode="&#xe94f;" glyph-name="star" d="M768 21.291c-8.235 0-16.512 2.389-23.68 7.168l-232.32 154.88-232.32-154.88c-14.848-9.899-34.347-9.557-48.853 1.024-14.421 10.539-20.736 28.971-15.829 46.165l78.421 274.56-195.584 195.584c-12.203 12.16-15.829 30.549-9.259 46.507 6.571 15.915 22.187 26.325 39.424 26.325h229.632l116.224 232.405c14.464 28.885 61.867 28.885 76.331 0l116.224-232.405h229.589c17.237 0 32.853-10.411 39.424-26.325 6.571-15.957 2.944-34.347-9.259-46.507l-195.584-195.584 78.421-274.56c4.907-17.195-1.408-35.627-15.829-46.165-7.509-5.461-16.341-8.192-25.173-8.192zM512 277.291c8.235 0 16.512-2.432 23.68-7.168l159.403-106.283-53.419 187.051c-4.309 14.933-0.128 30.976 10.837 41.899l140.501 140.501h-153.003c-16.171 0-30.933 9.131-38.187 23.595l-89.813 179.669-89.813-179.669c-7.253-14.464-22.016-23.595-38.187-23.595h-153.003l140.501-140.501c10.965-10.965 15.104-27.008 10.837-41.899l-53.419-187.051 159.403 106.283c7.168 4.736 15.445 7.168 23.68 7.168z" />
<glyph unicode="&#xe950;" glyph-name="strategy" d="M597.376 874.667v-85.333h195.669l-652.501-652.501 60.331-60.331 652.501 652.501v-195.669h85.333v341.333zM158.208 545.835l97.835 97.835 97.835-97.835 60.331 60.331-97.835 97.835 97.835 97.835-60.331 60.331-97.835-97.835-97.835 97.835-60.331-60.331 97.835-97.835-97.835-97.835zM746.709 405.333c-105.856 0-192-86.144-192-192s86.144-192 192-192 192 86.144 192 192-86.144 192-192 192zM746.709 106.667c-58.795 0-106.667 47.829-106.667 106.667s47.872 106.667 106.667 106.667 106.667-47.829 106.667-106.667-47.872-106.667-106.667-106.667z" />
<glyph unicode="&#xe951;" glyph-name="tag" d="M426.667 21.333c10.923 0 21.845 4.181 30.165 12.501l469.333 469.333c8.021 7.979 12.501 18.816 12.501 30.165v298.667c0 23.595-19.072 42.667-42.667 42.667h-298.667c-11.349 0-22.187-4.48-30.165-12.501l-469.333-469.333c-16.683-16.683-16.683-43.648 0-60.331l298.667-298.667c8.32-8.32 19.243-12.501 30.165-12.501v0zM853.333 550.997l-426.667-426.667-238.336 238.336 426.667 426.667h238.336v-238.336zM640 661.333c0-47.128 38.205-85.333 85.333-85.333s85.333 38.205 85.333 85.333c0 47.128-38.205 85.333-85.333 85.333s-85.333-38.205-85.333-85.333z" />
<glyph unicode="&#xe952;" glyph-name="target" d="M981.333 490.624h-130.944c-19.371 154.027-141.653 276.352-295.723 295.68v130.987h-85.333v-130.944c-154.069-19.371-276.352-141.653-295.723-295.723h-130.944v-85.333h130.944c19.371-154.069 141.611-276.395 295.723-295.723v-130.944h85.333v130.944c154.069 19.371 276.352 141.653 295.723 295.723h130.944v85.333zM554.667 195.797v166.827h-85.333v-166.827c-107.008 18.048-191.403 102.485-209.493 209.493h166.827v85.333h-166.827c18.091 106.923 102.485 191.403 209.493 209.451v-166.827h85.333v166.827c107.008-18.048 191.403-102.528 209.493-209.493h-166.827v-85.333h166.827c-18.091-106.965-102.485-191.403-209.493-209.451z" />
<glyph unicode="&#xe953;" glyph-name="text" d="M853.333 874.667h-682.667c-47.061 0-85.333-38.272-85.333-85.333v-682.667c0-47.061 38.272-85.333 85.333-85.333h682.667c47.061 0 85.333 38.272 85.333 85.333v682.667c0 47.061-38.272 85.333-85.333 85.333zM853.205 106.667h-682.539v682.667h682.667l-0.128-682.667zM256 661.333h512v-85.333h-512v85.333zM256 490.667h512v-85.333h-512v85.333zM256 320h384v-85.333h-384v85.333z" />
<glyph unicode="&#xe954;" glyph-name="user-support" d="M640.043 234.667c-6.485 0-13.056 1.493-19.072 4.48-14.464 7.211-23.595 22.016-23.595 38.187v85.333h-42.667v85.333h85.333c23.552 0 42.667-19.115 42.667-42.667v-42.667l102.4 76.8c7.381 5.547 16.384 8.533 25.6 8.533 70.571 0 128 57.429 128 128v85.333c0 70.571-57.429 128-128 128h-256c-57.045 0-107.733-38.315-123.179-93.184l-82.133 23.168c25.771 91.477 110.208 155.349 205.312 155.349h256c117.632 0 213.333-95.701 213.333-213.333v-85.333c0-112.64-87.723-205.184-198.4-212.821l-160-119.979c-7.552-5.632-16.555-8.533-25.6-8.533zM341.376 277.333c-94.123 0-170.667 76.544-170.667 170.667 0 94.080 76.544 170.667 170.667 170.667s170.667-76.587 170.667-170.667c0-94.123-76.544-170.667-170.667-170.667zM341.376 533.333c-47.061 0-85.333-38.229-85.333-85.333 0-47.061 38.272-85.333 85.333-85.333s85.333 38.272 85.333 85.333c0 47.104-38.272 85.333-85.333 85.333zM682.709-64h-682.667v42.667c0 150.741 140.373 256 341.333 256s341.333-105.259 341.333-256v-42.667zM92.16 21.333h498.475c-25.515 77.141-120.875 128-249.216 128s-223.744-50.859-249.259-128z" />
<glyph unicode="&#xe955;" glyph-name="users-community" d="M768.043-64h-512v85.333c0 117.632 95.701 213.333 213.333 213.333h85.333c117.632 0 213.333-95.701 213.333-213.333v-85.333zM341.376 21.333h341.333c0 70.571-57.429 128-128 128h-85.333c-70.571 0-128-57.429-128-128zM170.709 21.333c0 29.653 4.48 58.24 12.587 85.333h-55.253c-70.571 0-128-57.429-128-128v-42.667h170.667v85.333zM320.981 280.149c-10.965 47.232-53.12 82.517-103.68 82.517-58.88 0-106.624-47.744-106.624-106.667 0-53.248 39.125-96.981 90.069-105.003 26.24 54.229 68.267 99.243 120.235 129.152zM896.043 106.667h-55.253c8.064-27.093 12.587-55.68 12.587-85.333v-85.333h170.667v42.667c0 70.571-57.429 128-128 128zM814.635 362.667c-52.053 0-95.232-37.376-104.619-86.699 49.024-29.995 88.661-73.643 113.707-125.696 54.571 4.651 97.621 49.963 97.621 105.771 0 58.88-47.787 106.624-106.709 106.624zM512.043 234.667c-70.571 0-128 57.429-128 128s57.429 128 128 128 128-57.429 128-128-57.429-128-128-128zM512.043 405.333c-23.509 0-42.667-19.157-42.667-42.667s19.157-42.667 42.667-42.667 42.667 19.157 42.667 42.667-19.157 42.667-42.667 42.667zM725.376 960h-426.667c-47.104 0-85.333-38.229-85.333-85.333v-469.333l128 128h384c47.104 0 85.333 38.229 85.333 85.333v256c0 47.104-38.229 85.333-85.333 85.333zM682.709 618.667h-341.333v85.333h341.333v-85.333zM682.709 789.333h-341.333v85.333h341.333v-85.333z" />
<glyph unicode="&#xe956;" glyph-name="video-camera" d="M875.776 612.352c-12.587 7.808-28.331 8.448-41.515 1.877l-108.928-54.485v58.965c0 47.104-38.272 85.333-85.333 85.333h-384c-47.061 0-85.333-38.229-85.333-85.333v-341.333c0-47.104 38.272-85.333 85.333-85.333h384c47.061 0 85.333 38.229 85.333 85.333v58.965l108.928-54.443c6.016-2.987 12.544-4.48 19.072-4.48 7.808 0 15.573 2.176 22.443 6.357 12.544 7.765 20.224 21.461 20.224 36.267v256c0 14.805-7.68 28.501-20.224 36.309zM639.872 277.376h-383.872v341.333h384l-0.128-341.333zM810.667 389.077l-85.333 42.667v32.597l85.333 42.667v-117.931z" />
<glyph unicode="&#xe957;" glyph-name="video" d="M426.667 320l256 128-256 128zM896 874.667h-768c-47.061 0-85.333-38.229-85.333-85.333v-682.667c0-47.061 38.272-85.333 85.333-85.333h768c47.061 0 85.333 38.272 85.333 85.333v682.667c0 47.104-38.272 85.333-85.333 85.333zM128 106.667v682.667h768l0.043-682.667h-768.043zM213.333 746.667h85.333v-85.333h-85.333v85.333zM384 746.667h85.333v-85.333h-85.333v85.333zM554.667 746.667h85.333v-85.333h-85.333v85.333zM725.333 746.667h85.333v-85.333h-85.333v85.333zM213.333 234.667h85.333v-85.333h-85.333v85.333zM384 234.667h85.333v-85.333h-85.333v85.333zM554.667 234.667h85.333v-85.333h-85.333v85.333zM725.333 234.667h85.333v-85.333h-85.333v85.333z" />
<glyph unicode="&#xe958;" glyph-name="vote-heart" d="M512 106.624c-7.851 0-15.659 2.176-22.571 6.485-14.805 9.216-361.429 228.565-361.429 462.848 0 117.632 95.701 213.333 213.333 213.333 68.011 0 130.987-35.712 170.667-88.747 39.68 53.035 102.656 88.747 170.667 88.747 117.632 0 213.333-95.701 213.333-213.333 0-234.283-346.624-453.632-361.429-462.848-6.912-4.309-14.72-6.485-22.571-6.485zM341.333 703.957c-70.571 0-128-57.429-128-128 0-143.488 198.101-307.499 298.667-375.723 100.565 68.224 298.667 232.192 298.667 375.723 0 70.571-57.429 128-128 128-72.064 0-128-68.779-128-128 0-23.552-19.072-42.667-42.667-42.667s-42.667 19.115-42.667 42.667c0 59.221-55.936 128-128 128z" />
<glyph unicode="&#xe959;" glyph-name="wallet" d="M896 533.333h-42.667v85.333c0 47.061-38.272 85.333-85.333 85.333h-16.299l-73.557 147.072c-9.899 19.84-33.408 28.757-54.016 20.523l-419.029-167.595h-34.432c-47.061 0-85.333-38.272-85.333-85.333v-512c0-47.061 38.272-85.333 85.333-85.333h597.333c47.061 0 85.333 38.272 85.333 85.333v85.333h42.667c23.552 0 42.667 19.115 42.667 42.667v256c0 23.552-19.115 42.667-42.667 42.667zM619.392 777.813l36.907-73.813h-221.397l184.491 73.813zM767.872 106.667h-597.205v512h597.333v-85.333h-128c-11.307 0-22.187-4.523-30.165-12.544l-128-128c-16.683-16.64-16.683-43.605 0-60.331l128-128c7.979-7.936 18.859-12.459 30.165-12.459h127.915l-0.043-85.333zM853.333 277.333h-195.669l-85.333 85.333 85.333 85.333h195.669v-170.667zM725.333 362.667c0-23.564-19.103-42.667-42.667-42.667s-42.667 19.103-42.667 42.667c0 23.564 19.103 42.667 42.667 42.667s42.667-19.103 42.667-42.667z" />
<glyph unicode="&#xe95a;" glyph-name="window-application" d="M896 874.667h-768c-47.061 0-85.333-38.272-85.333-85.333v-682.667c0-47.061 38.272-85.333 85.333-85.333h768c47.061 0 85.333 38.272 85.333 85.333v682.667c0 47.061-38.272 85.333-85.333 85.333zM896 704h-341.333v85.333h341.333v-85.333zM341.333 704v85.333h128v-85.333h-128zM256 789.333v-85.333h-128v85.333h128zM128 106.667v512h767.957l-0.085-512h-767.872zM213.333 533.333h597.333v-85.333h-597.333v85.333zM213.333 405.333h85.333v-213.333h-85.333v213.333zM384 405.333h426.667v-85.333h-426.667v85.333zM384 277.333h426.667v-85.333h-426.667v85.333z" />
<glyph unicode="&#xf002;" glyph-name="search" horiz-adv-x="951" d="M658.286 475.428c0 141.143-114.857 256-256 256s-256-114.857-256-256 114.857-256 256-256 256 114.857 256 256zM950.857 0c0-40-33.143-73.143-73.143-73.143-19.429 0-38.286 8-51.429 21.714l-196 195.429c-66.857-46.286-146.857-70.857-228-70.857-222.286 0-402.286 180-402.286 402.286s180 402.286 402.286 402.286 402.286-180 402.286-402.286c0-81.143-24.571-161.143-70.857-228l196-196c13.143-13.143 21.143-32 21.143-51.429z" />
<glyph unicode="&#xf003;" glyph-name="envelope-o" d="M950.857 91.428v438.857c-12-13.714-25.143-26.286-39.429-37.714-81.714-62.857-164-126.857-243.429-193.143-42.857-36-96-80-155.429-80h-1.143c-59.429 0-112.571 44-155.429 80-79.429 66.286-161.714 130.286-243.429 193.143-14.286 11.429-27.429 24-39.429 37.714v-438.857c0-9.714 8.571-18.286 18.286-18.286h841.143c9.714 0 18.286 8.571 18.286 18.286zM950.857 692c0 14.286 3.429 39.429-18.286 39.429h-841.143c-9.714 0-18.286-8.571-18.286-18.286 0-65.143 32.571-121.714 84-162.286 76.571-60 153.143-120.571 229.143-181.143 30.286-24.571 85.143-77.143 125.143-77.143h1.143c40 0 94.857 52.571 125.143 77.143 76 60.571 152.571 121.143 229.143 181.143 37.143 29.143 84 92.571 84 141.143zM1024 713.143v-621.714c0-50.286-41.143-91.429-91.429-91.429h-841.143c-50.286 0-91.429 41.143-91.429 91.429v621.714c0 50.286 41.143 91.429 91.429 91.429h841.143c50.286 0 91.429-41.143 91.429-91.429z" />
<glyph unicode="&#xf006;" glyph-name="star-o" horiz-adv-x="951" d="M649.714 377.143l174.857 169.714-241.143 35.429-108 218.286-108-218.286-241.143-35.429 174.857-169.714-41.714-240.571 216 113.714 215.429-113.714zM950.857 581.143c0-10.286-7.429-20-14.857-27.429l-207.429-202.286 49.143-285.714c0.571-4 0.571-7.429 0.571-11.429 0-15.429-6.857-28.571-23.429-28.571-8 0-16 2.857-22.857 6.857l-256.571 134.857-256.571-134.857c-7.429-4-14.857-6.857-22.857-6.857-16.571 0-24 13.714-24 28.571 0 4 0.571 7.429 1.143 11.429l49.143 285.714-208 202.286c-6.857 7.429-14.286 17.143-14.286 27.429 0 17.143 17.714 24 32 26.286l286.857 41.714 128.571 260c5.143 10.857 14.857 23.429 28 23.429s22.857-12.571 28-23.429l128.571-260 286.857-41.714c13.714-2.286 32-9.143 32-26.286z" />
<glyph unicode="&#xf007;" glyph-name="user" horiz-adv-x="731" d="M731.429 151.428c0-83.429-54.857-151.429-121.714-151.429h-488c-66.857 0-121.714 68-121.714 151.429 0 150.286 37.143 324 186.857 324 46.286-45.143 109.143-73.143 178.857-73.143s132.571 28 178.857 73.143c149.714 0 186.857-173.714 186.857-324zM585.143 658.286c0-121.143-98.286-219.429-219.429-219.429s-219.429 98.286-219.429 219.429 98.286 219.429 219.429 219.429 219.429-98.286 219.429-219.429z" />
<glyph unicode="&#xf00c;" glyph-name="check" d="M954.857 627.428c0-14.286-5.714-28.571-16-38.857l-491.429-491.429c-10.286-10.286-24.571-16-38.857-16s-28.571 5.714-38.857 16l-284.571 284.571c-10.286 10.286-16 24.571-16 38.857s5.714 28.571 16 38.857l77.714 77.714c10.286 10.286 24.571 16 38.857 16s28.571-5.714 38.857-16l168-168.571 374.857 375.429c10.286 10.286 24.571 16 38.857 16s28.571-5.714 38.857-16l77.714-77.714c10.286-10.286 16-24.571 16-38.857z" />
<glyph unicode="&#xf00d;" glyph-name="close" horiz-adv-x="805" d="M741.714 195.428c0-14.286-5.714-28.571-16-38.857l-77.714-77.714c-10.286-10.286-24.571-16-38.857-16s-28.571 5.714-38.857 16l-168 168-168-168c-10.286-10.286-24.571-16-38.857-16s-28.571 5.714-38.857 16l-77.714 77.714c-10.286 10.286-16 24.571-16 38.857s5.714 28.571 16 38.857l168 168-168 168c-10.286 10.286-16 24.571-16 38.857s5.714 28.571 16 38.857l77.714 77.714c10.286 10.286 24.571 16 38.857 16s28.571-5.714 38.857-16l168-168 168 168c10.286 10.286 24.571 16 38.857 16s28.571-5.714 38.857-16l77.714-77.714c10.286-10.286 16-24.571 16-38.857s-5.714-28.571-16-38.857l-168-168 168-168c10.286-10.286 16-24.571 16-38.857z" />
<glyph unicode="&#xf011;" glyph-name="power-off" horiz-adv-x="878" d="M877.714 438.857c0-241.714-197.143-438.857-438.857-438.857s-438.857 197.143-438.857 438.857c0 138.857 64 266.857 175.429 350.286 32.571 24.571 78.286 18.286 102.286-14.286 24.571-32 17.714-78.286-14.286-102.286-74.286-56-117.143-141.143-117.143-233.714 0-161.143 131.429-292.571 292.571-292.571s292.571 131.429 292.571 292.571c0 92.571-42.857 177.714-117.143 233.714-32 24-38.857 70.286-14.286 102.286 24 32.571 70.286 38.857 102.286 14.286 111.429-83.429 175.429-211.429 175.429-350.286zM512 877.714v-365.714c0-40-33.143-73.143-73.143-73.143s-73.143 33.143-73.143 73.143v365.714c0 40 33.143 73.143 73.143 73.143s73.143-33.143 73.143-73.143z" />
<glyph unicode="&#xf013;" glyph-name="cog" horiz-adv-x="878" d="M585.143 438.857c0 80.571-65.714 146.286-146.286 146.286s-146.286-65.714-146.286-146.286 65.714-146.286 146.286-146.286 146.286 65.714 146.286 146.286zM877.714 501.143v-126.857c0-8.571-6.857-18.857-16-20.571l-105.714-16c-6.286-18.286-13.143-35.429-22.286-52 19.429-28 40-53.143 61.143-78.857 3.429-4 5.714-9.143 5.714-14.286s-1.714-9.143-5.143-13.143c-13.714-18.286-90.857-102.286-110.286-102.286-5.143 0-10.286 2.286-14.857 5.143l-78.857 61.714c-16.571-8.571-34.286-16-52-21.714-4-34.857-7.429-72-16.571-106.286-2.286-9.143-10.286-16-20.571-16h-126.857c-10.286 0-19.429 7.429-20.571 17.143l-16 105.143c-17.714 5.714-34.857 12.571-51.429 21.143l-80.571-61.143c-4-3.429-9.143-5.143-14.286-5.143s-10.286 2.286-14.286 6.286c-30.286 27.429-70.286 62.857-94.286 96-2.857 4-4 8.571-4 13.143 0 5.143 1.714 9.143 4.571 13.143 19.429 26.286 40.571 51.429 60 78.286-9.714 18.286-17.714 37.143-23.429 56.571l-104.571 15.429c-9.714 1.714-16.571 10.857-16.571 20.571v126.857c0 8.571 6.857 18.857 15.429 20.571l106.286 16c5.714 18.286 13.143 35.429 22.286 52.571-19.429 27.429-40 53.143-61.143 78.857-3.429 4-5.714 8.571-5.714 13.714s2.286 9.143 5.143 13.143c13.714 18.857 90.857 102.286 110.286 102.286 5.143 0 10.286-2.286 14.857-5.714l78.857-61.143c16.571 8.571 34.286 16 52 21.714 4 34.857 7.429 72 16.571 106.286 2.286 9.143 10.286 16 20.571 16h126.857c10.286 0 19.429-7.429 20.571-17.143l16-105.143c17.714-5.714 34.857-12.571 51.429-21.143l81.143 61.143c3.429 3.429 8.571 5.143 13.714 5.143s10.286-2.286 14.286-5.714c30.286-28 70.286-63.429 94.286-97.143 2.857-3.429 4-8 4-12.571 0-5.143-1.714-9.143-4.571-13.143-19.429-26.286-40.571-51.429-60-78.286 9.714-18.286 17.714-37.143 23.429-56l104.571-16c9.714-1.714 16.571-10.857 16.571-20.571z" />
<glyph unicode="&#xf015;" glyph-name="home" horiz-adv-x="951" d="M804.571 384v-274.286c0-20-16.571-36.571-36.571-36.571h-219.429v219.429h-146.286v-219.429h-219.429c-20 0-36.571 16.571-36.571 36.571v274.286c0 1.143 0.571 2.286 0.571 3.429l328.571 270.857 328.571-270.857c0.571-1.143 0.571-2.286 0.571-3.429zM932 423.428l-35.429-42.286c-2.857-3.429-7.429-5.714-12-6.286h-1.714c-4.571 0-8.571 1.143-12 4l-395.429 329.714-395.429-329.714c-4-2.857-8.571-4.571-13.714-4-4.571 0.571-9.143 2.857-12 6.286l-35.429 42.286c-6.286 7.429-5.143 19.429 2.286 25.714l410.857 342.286c24 20 62.857 20 86.857 0l139.429-116.571v111.429c0 10.286 8 18.286 18.286 18.286h109.714c10.286 0 18.286-8 18.286-18.286v-233.143l125.143-104c7.429-6.286 8.571-18.286 2.286-25.714z" />
<glyph unicode="&#xf016;" glyph-name="file-o" horiz-adv-x="878" d="M838.857 733.714c21.143-21.143 38.857-63.429 38.857-93.714v-658.286c0-30.286-24.571-54.857-54.857-54.857h-768c-30.286 0-54.857 24.571-54.857 54.857v914.286c0 30.286 24.571 54.857 54.857 54.857h512c30.286 0 72.571-17.714 93.714-38.857zM585.143 873.143v-214.857h214.857c-3.429 9.714-8.571 19.429-12.571 23.429l-178.857 178.857c-4 4-13.714 9.143-23.429 12.571zM804.571 0v585.143h-237.714c-30.286 0-54.857 24.571-54.857 54.857v237.714h-438.857v-877.714h731.429z" />
<glyph unicode="&#xf021;" glyph-name="refresh" horiz-adv-x="878" d="M863.429 347.428c0-1.143 0-2.857-0.571-4-48.571-202.286-215.429-343.429-426.286-343.429-111.429 0-219.429 44-300.571 121.143l-73.714-73.714c-6.857-6.857-16-10.857-25.714-10.857-20 0-36.571 16.571-36.571 36.571v256c0 20 16.571 36.571 36.571 36.571h256c20 0 36.571-16.571 36.571-36.571 0-9.714-4-18.857-10.857-25.714l-78.286-78.286c53.714-50.286 125.143-78.857 198.857-78.857 101.714 0 196 52.571 249.143 139.429 13.714 22.286 20.571 44 30.286 66.857 2.857 8 8.571 13.143 17.143 13.143h109.714c10.286 0 18.286-8.571 18.286-18.286zM877.714 804.571v-256c0-20-16.571-36.571-36.571-36.571h-256c-20 0-36.571 16.571-36.571 36.571 0 9.714 4 18.857 10.857 25.714l78.857 78.857c-54.286 50.286-125.714 78.286-199.429 78.286-101.714 0-196-52.571-249.143-139.429-13.714-22.286-20.571-44-30.286-66.857-2.857-8-8.571-13.143-17.143-13.143h-113.714c-10.286 0-18.286 8.571-18.286 18.286v4c49.143 202.857 217.714 343.429 428.571 343.429 112 0 221.143-44.571 302.286-121.143l74.286 73.714c6.857 6.857 16 10.857 25.714 10.857 20 0 36.571-16.571 36.571-36.571z" />
<glyph unicode="&#xf043;" glyph-name="tint" horiz-adv-x="585" d="M292.571 292.571c0 14.286-4.571 28-11.429 39.429-7.429 11.429-37.714 50.286-49.714 88.571-1.714 6.286-7.429 9.143-12 9.143s-10.286-2.857-12-9.143c-12-38.286-42.286-77.143-49.714-88.571-6.857-11.429-11.429-25.143-11.429-39.429 0-40.571 32.571-73.143 73.143-73.143s73.143 32.571 73.143 73.143zM585.143 365.714c0-161.714-130.857-292.571-292.571-292.571s-292.571 130.857-292.571 292.571c0 57.714 17.714 111.429 46.286 157.143 29.143 45.714 151.429 200.571 197.714 354.857 7.429 24.571 30.286 36.571 48.571 36.571s41.714-12 48.571-36.571c46.286-154.286 168.571-309.143 197.714-354.857s46.286-99.429 46.286-157.143z" />
<glyph unicode="&#xf053;" glyph-name="chevron-left" horiz-adv-x="768" d="M669.143 778.857l-303.429-303.429 303.429-303.429c14.286-14.286 14.286-37.143 0-51.429l-94.857-94.857c-14.286-14.286-37.143-14.286-51.429 0l-424 424c-14.286 14.286-14.286 37.143 0 51.429l424 424c14.286 14.286 37.143 14.286 51.429 0l94.857-94.857c14.286-14.286 14.286-37.143 0-51.429z" />
<glyph unicode="&#xf054;" glyph-name="chevron-right" horiz-adv-x="695" d="M632.571 449.714l-424-424c-14.286-14.286-37.143-14.286-51.429 0l-94.857 94.857c-14.286 14.286-14.286 37.143 0 51.429l303.429 303.429-303.429 303.429c-14.286 14.286-14.286 37.143 0 51.429l94.857 94.857c14.286 14.286 37.143 14.286 51.429 0l424-424c14.286-14.286 14.286-37.143 0-51.429z" />
<glyph unicode="&#xf05a;" glyph-name="info-circle" horiz-adv-x="878" d="M585.143 164.571v91.429c0 10.286-8 18.286-18.286 18.286h-54.857v292.571c0 10.286-8 18.286-18.286 18.286h-182.857c-10.286 0-18.286-8-18.286-18.286v-91.429c0-10.286 8-18.286 18.286-18.286h54.857v-182.857h-54.857c-10.286 0-18.286-8-18.286-18.286v-91.429c0-10.286 8-18.286 18.286-18.286h256c10.286 0 18.286 8 18.286 18.286zM512 676.571v91.429c0 10.286-8 18.286-18.286 18.286h-109.714c-10.286 0-18.286-8-18.286-18.286v-91.429c0-10.286 8-18.286 18.286-18.286h109.714c10.286 0 18.286 8 18.286 18.286zM877.714 438.857c0-242.286-196.571-438.857-438.857-438.857s-438.857 196.571-438.857 438.857 196.571 438.857 438.857 438.857 438.857-196.571 438.857-438.857z" />
<glyph unicode="&#xf077;" glyph-name="chevron-up" d="M961.714 190.286l-94.857-94.286c-14.286-14.286-37.143-14.286-51.429 0l-303.429 303.429-303.429-303.429c-14.286-14.286-37.143-14.286-51.429 0l-94.857 94.286c-14.286 14.286-14.286 37.714 0 52l424 423.429c14.286 14.286 37.143 14.286 51.429 0l424-423.429c14.286-14.286 14.286-37.714 0-52z" />
<glyph unicode="&#xf078;" glyph-name="chevron-down" d="M961.714 489.143l-424-423.429c-14.286-14.286-37.143-14.286-51.429 0l-424 423.429c-14.286 14.286-14.286 37.714 0 52l94.857 94.286c14.286 14.286 37.143 14.286 51.429 0l303.429-303.429 303.429 303.429c14.286 14.286 37.143 14.286 51.429 0l94.857-94.286c14.286-14.286 14.286-37.714 0-52z" />
<glyph unicode="&#xf08d;" glyph-name="thumb-tack" horiz-adv-x="658" d="M274.286 457.143v256c0 10.286-8 18.286-18.286 18.286s-18.286-8-18.286-18.286v-256c0-10.286 8-18.286 18.286-18.286s18.286 8 18.286 18.286zM658.286 256c0-20-16.571-36.571-36.571-36.571h-245.143l-29.143-276c-1.143-9.143-8.571-16.571-17.714-16.571h-0.571c-9.143 0-16.571 6.286-18.286 15.429l-43.429 277.143h-230.857c-20 0-36.571 16.571-36.571 36.571 0 93.714 70.857 182.857 146.286 182.857v292.571c-40 0-73.143 33.143-73.143 73.143s33.143 73.143 73.143 73.143h365.714c40 0 73.143-33.143 73.143-73.143s-33.143-73.143-73.143-73.143v-292.571c75.429 0 146.286-89.143 146.286-182.857z" />
<glyph unicode="&#xf099;" glyph-name="twitter" horiz-adv-x="951" d="M925.714 717.714c-25.143-36.571-56.571-69.143-92.571-95.429 0.571-8 0.571-16 0.571-24 0-244-185.714-525.143-525.143-525.143-104.571 0-201.714 30.286-283.429 82.857 14.857-1.714 29.143-2.286 44.571-2.286 86.286 0 165.714 29.143 229.143 78.857-81.143 1.714-149.143 54.857-172.571 128 11.429-1.714 22.857-2.857 34.857-2.857 16.571 0 33.143 2.286 48.571 6.286-84.571 17.143-148 91.429-148 181.143v2.286c24.571-13.714 53.143-22.286 83.429-23.429-49.714 33.143-82.286 89.714-82.286 153.714 0 34.286 9.143 65.714 25.143 93.143 90.857-112 227.429-185.143 380.571-193.143-2.857 13.714-4.571 28-4.571 42.286 0 101.714 82.286 184.571 184.571 184.571 53.143 0 101.143-22.286 134.857-58.286 41.714 8 81.714 23.429 117.143 44.571-13.714-42.857-42.857-78.857-81.143-101.714 37.143 4 73.143 14.286 106.286 28.571z" />
<glyph unicode="&#xf09a;" glyph-name="facebook, facebook-f" horiz-adv-x="602" d="M548 944v-150.857h-89.714c-70.286 0-83.429-33.714-83.429-82.286v-108h167.429l-22.286-169.143h-145.143v-433.714h-174.857v433.714h-145.714v169.143h145.714v124.571c0 144.571 88.571 223.429 217.714 223.429 61.714 0 114.857-4.571 130.286-6.857z" />
<glyph unicode="&#xf09b;" glyph-name="github" horiz-adv-x="878" d="M438.857 877.714c242.286 0 438.857-196.571 438.857-438.857 0-193.714-125.714-358.286-300-416.571-22.286-4-30.286 9.714-30.286 21.143 0 14.286 0.571 61.714 0.571 120.571 0 41.143-13.714 67.429-29.714 81.143 97.714 10.857 200.571 48 200.571 216.571 0 48-17.143 86.857-45.143 117.714 4.571 11.429 19.429 56-4.571 116.571-36.571 11.429-120.571-45.143-120.571-45.143-34.857 9.714-72.571 14.857-109.714 14.857s-74.857-5.143-109.714-14.857c0 0-84 56.571-120.571 45.143-24-60.571-9.143-105.143-4.571-116.571-28-30.857-45.143-69.714-45.143-117.714 0-168 102.286-205.714 200-216.571-12.571-11.429-24-30.857-28-58.857-25.143-11.429-89.143-30.857-127.429 36.571-24 41.714-67.429 45.143-67.429 45.143-42.857 0.571-2.857-26.857-2.857-26.857 28.571-13.143 48.571-64 48.571-64 25.714-78.286 148-52 148-52 0-36.571 0.571-70.857 0.571-81.714 0-11.429-8-25.143-30.286-21.143-174.286 58.286-300 222.857-300 416.571 0 242.286 196.571 438.857 438.857 438.857zM166.286 247.428c1.143 2.286-0.571 5.143-4 6.857-3.429 1.143-6.286 0.571-7.429-1.143-1.143-2.286 0.571-5.143 4-6.857 2.857-1.714 6.286-1.143 7.429 1.143zM184 228c2.286 1.714 1.714 5.714-1.143 9.143-2.857 2.857-6.857 4-9.143 1.714-2.286-1.714-1.714-5.714 1.143-9.143 2.857-2.857 6.857-4 9.143-1.714zM201.143 202.286c2.857 2.286 2.857 6.857 0 10.857-2.286 4-6.857 5.714-9.714 3.429-2.857-1.714-2.857-6.286 0-10.286s7.429-5.714 9.714-4zM225.143 178.286c2.286 2.286 1.143 7.429-2.286 10.857-4 4-9.143 4.571-11.429 1.714-2.857-2.286-1.714-7.429 2.286-10.857 4-4 9.143-4.571 11.429-1.714zM257.714 164c1.143 3.429-2.286 7.429-7.429 9.143-4.571 1.143-9.714-0.571-10.857-4s2.286-7.429 7.429-8.571c4.571-1.714 9.714 0 10.857 3.429zM293.714 161.143c0 4-4.571 6.857-9.714 6.286-5.143 0-9.143-2.857-9.143-6.286 0-4 4-6.857 9.714-6.286 5.143 0 9.143 2.857 9.143 6.286zM326.857 166.857c-0.571 3.429-5.143 5.714-10.286 5.143-5.143-1.143-8.571-4.571-8-8.571 0.571-3.429 5.143-5.714 10.286-4.571s8.571 4.571 8 8z" />
<glyph unicode="&#xf09d;" glyph-name="credit-card" horiz-adv-x="1097" d="M1005.714 877.714c50.286 0 91.429-41.143 91.429-91.429v-694.857c0-50.286-41.143-91.429-91.429-91.429h-914.286c-50.286 0-91.429 41.143-91.429 91.429v694.857c0 50.286 41.143 91.429 91.429 91.429h914.286zM91.429 804.571c-9.714 0-18.286-8.571-18.286-18.286v-128h950.857v128c0 9.714-8.571 18.286-18.286 18.286h-914.286zM1005.714 73.143c9.714 0 18.286 8.571 18.286 18.286v347.429h-950.857v-347.429c0-9.714 8.571-18.286 18.286-18.286h914.286zM146.286 146.286v73.143h146.286v-73.143h-146.286zM365.714 146.286v73.143h219.429v-73.143h-219.429z" />
<glyph unicode="&#xf09e;" glyph-name="rss" horiz-adv-x="805" d="M219.429 182.857c0-60.571-49.143-109.714-109.714-109.714s-109.714 49.143-109.714 109.714 49.143 109.714 109.714 109.714 109.714-49.143 109.714-109.714zM512 112.571c0.571-10.286-2.857-20-9.714-27.429-6.857-8-16.571-12-26.857-12h-77.143c-18.857 0-34.286 14.286-36 33.143-16.571 174.286-154.857 312.571-329.143 329.143-18.857 1.714-33.143 17.143-33.143 36v77.143c0 10.286 4 20 12 26.857 6.286 6.286 15.429 9.714 24.571 9.714h2.857c121.714-9.714 236.571-62.857 322.857-149.714 86.857-86.286 140-201.143 149.714-322.857zM804.571 111.428c0.571-9.714-2.857-19.429-10.286-26.857-6.857-7.429-16-11.429-26.286-11.429h-81.714c-19.429 0-35.429 14.857-36.571 34.286-18.857 332-283.429 596.571-615.429 616-19.429 1.143-34.286 17.143-34.286 36v81.714c0 10.286 4 19.429 11.429 26.286 6.857 6.857 16 10.286 25.143 10.286h1.714c200-10.286 388-94.286 529.714-236.571 142.286-141.714 226.286-329.714 236.571-529.714z" />
<glyph unicode="&#xf0c6;" glyph-name="paperclip" horiz-adv-x="805" d="M802.286 159.428c0-89.143-68-157.143-157.143-157.143-50.286 0-98.857 21.714-134.286 57.143l-444 443.429c-40.571 41.143-64.571 97.143-64.571 154.857 0 121.143 95.429 217.714 216.571 217.714 58.286 0 114.286-23.429 156-64.571l345.714-346.286c3.429-3.429 5.714-8 5.714-12.571 0-12-32-44-44-44-5.143 0-9.714 2.286-13.143 5.714l-346.286 346.857c-27.429 26.857-64.571 44-103.429 44-81.143 0-144-65.714-144-146.286 0-38.857 16-76 43.429-103.429l443.429-444c21.714-21.714 52-36 82.857-36 48.571 0 84.571 36 84.571 84.571 0 31.429-14.286 61.143-36 82.857l-332 332c-9.143 8.571-21.714 13.714-34.286 13.714-21.714 0-38.286-16-38.286-38.286 0-12.571 5.714-24.571 14.286-33.714l234.286-234.286c3.429-3.429 5.714-8 5.714-12.571 0-12-32.571-44.571-44.571-44.571-4.571 0-9.143 2.286-12.571 5.714l-234.286 234.286c-22.857 22.286-36 53.714-36 85.143 0 62.857 49.143 112 112 112 32 0 62.857-13.143 85.143-36l332-332c36-35.429 57.143-84 57.143-134.286z" />
<glyph unicode="&#xf0c9;" glyph-name="bars" horiz-adv-x="878" d="M877.714 182.857v-73.143c0-20-16.571-36.571-36.571-36.571h-804.571c-20 0-36.571 16.571-36.571 36.571v73.143c0 20 16.571 36.571 36.571 36.571h804.571c20 0 36.571-16.571 36.571-36.571zM877.714 475.428v-73.143c0-20-16.571-36.571-36.571-36.571h-804.571c-20 0-36.571 16.571-36.571 36.571v73.143c0 20 16.571 36.571 36.571 36.571h804.571c20 0 36.571-16.571 36.571-36.571zM877.714 768v-73.143c0-20-16.571-36.571-36.571-36.571h-804.571c-20 0-36.571 16.571-36.571 36.571v73.143c0 20 16.571 36.571 36.571 36.571h804.571c20 0 36.571-16.571 36.571-36.571z" />
<glyph unicode="&#xf0d2;" glyph-name="pinterest" horiz-adv-x="878" d="M877.714 438.857c0-242.286-196.571-438.857-438.857-438.857-43.429 0-84.571 6.286-124.571 18.286 16.571 26.286 35.429 60 44.571 93.714 0 0 5.143 19.429 30.857 120.571 14.857-29.143 59.429-54.857 106.857-54.857 141.143 0 237.143 128.571 237.143 301.143 0 129.714-110.286 251.429-278.286 251.429-208 0-313.143-149.714-313.143-274.286 0-75.429 28.571-142.857 89.714-168 9.714-4 18.857 0 21.714 11.429 2.286 7.429 6.857 26.857 9.143 34.857 2.857 11.429 1.714 14.857-6.286 24.571-17.714 21.143-29.143 48-29.143 86.286 0 110.857 82.857 210.286 216 210.286 117.714 0 182.857-72 182.857-168.571 0-126.286-56-233.143-139.429-233.143-45.714 0-80 37.714-69.143 84.571 13.143 55.429 38.857 115.429 38.857 155.429 0 36-19.429 66.286-59.429 66.286-46.857 0-84.571-48.571-84.571-113.714 0 0 0-41.714 14.286-69.714-48-203.429-56.571-238.857-56.571-238.857-8-33.143-8.571-70.286-7.429-101.143-154.857 68-262.857 222.286-262.857 402.286 0 242.286 196.571 438.857 438.857 438.857s438.857-196.571 438.857-438.857z" />
<glyph unicode="&#xf0d5;" glyph-name="google-plus" horiz-adv-x="1317" d="M821.143 429.143c0-239.429-160.571-409.143-402.286-409.143-231.429 0-418.857 187.429-418.857 418.857s187.429 418.857 418.857 418.857c113.143 0 207.429-41.143 280.571-109.714l-113.714-109.143c-30.857 29.714-85.143 64.571-166.857 64.571-142.857 0-259.429-118.286-259.429-264.571s116.571-264.571 259.429-264.571c165.714 0 228 119.429 237.714 180.571h-237.714v144h395.429c4-21.143 6.857-42.286 6.857-69.714zM1316.571 498.857v-120h-119.429v-119.429h-120v119.429h-119.429v120h119.429v119.429h120v-119.429h119.429z" />
<glyph unicode="&#xf0e1;" glyph-name="linkedin" horiz-adv-x="878" d="M199.429 593.714v-566.286h-188.571v566.286h188.571zM211.429 768.571c0.571-54.286-40.571-97.714-106.286-97.714v0h-1.143c-63.429 0-104 43.429-104 97.714 0 55.429 42.286 97.714 106.286 97.714 64.571 0 104.571-42.286 105.143-97.714zM877.714 352v-324.571h-188v302.857c0 76-27.429 128-95.429 128-52 0-82.857-34.857-96.571-68.571-4.571-12.571-6.286-29.143-6.286-46.286v-316h-188c2.286 513.143 0 566.286 0 566.286h188v-82.286h-1.143c24.571 38.857 69.143 95.429 170.857 95.429 124 0 216.571-81.143 216.571-254.857z" />
<glyph unicode="&#xf0e4;" glyph-name="dashboard" d="M219.429 292.571c0 40.571-32.571 73.143-73.143 73.143s-73.143-32.571-73.143-73.143 32.571-73.143 73.143-73.143 73.143 32.571 73.143 73.143zM329.143 548.571c0 40.571-32.571 73.143-73.143 73.143s-73.143-32.571-73.143-73.143 32.571-73.143 73.143-73.143 73.143 32.571 73.143 73.143zM573.714 273.714l57.714 218.286c4.571 19.429-6.857 39.429-26.286 44.571v0c-19.429 5.143-39.429-6.857-44.571-26.286l-57.714-218.286c-45.143-3.429-84.571-34.857-97.143-81.143-15.429-58.857 20-118.857 78.286-134.286 58.857-15.429 118.857 20 134.286 78.286 12 46.286-7.429 93.143-44.571 118.857zM950.857 292.571c0 40.571-32.571 73.143-73.143 73.143s-73.143-32.571-73.143-73.143 32.571-73.143 73.143-73.143 73.143 32.571 73.143 73.143zM585.143 658.286c0 40.571-32.571 73.143-73.143 73.143s-73.143-32.571-73.143-73.143 32.571-73.143 73.143-73.143 73.143 32.571 73.143 73.143zM841.143 548.571c0 40.571-32.571 73.143-73.143 73.143s-73.143-32.571-73.143-73.143 32.571-73.143 73.143-73.143 73.143 32.571 73.143 73.143zM1024 292.571c0-98.286-28-193.143-80.571-276-6.857-10.286-18.286-16.571-30.857-16.571h-801.143c-12.571 0-24 6.286-30.857 16.571-52.571 82.286-80.571 177.714-80.571 276 0 282.286 229.714 512 512 512s512-229.714 512-512z" />
<glyph unicode="&#xf0f6;" glyph-name="file-text-o" horiz-adv-x="878" d="M838.857 733.714c21.143-21.143 38.857-63.429 38.857-93.714v-658.286c0-30.286-24.571-54.857-54.857-54.857h-768c-30.286 0-54.857 24.571-54.857 54.857v914.286c0 30.286 24.571 54.857 54.857 54.857h512c30.286 0 72.571-17.714 93.714-38.857zM585.143 873.143v-214.857h214.857c-3.429 9.714-8.571 19.429-12.571 23.429l-178.857 178.857c-4 4-13.714 9.143-23.429 12.571zM804.571 0v585.143h-237.714c-30.286 0-54.857 24.571-54.857 54.857v237.714h-438.857v-877.714h731.429zM219.429 493.714c0 10.286 8 18.286 18.286 18.286h402.286c10.286 0 18.286-8 18.286-18.286v-36.571c0-10.286-8-18.286-18.286-18.286h-402.286c-10.286 0-18.286 8-18.286 18.286v36.571zM640 365.714c10.286 0 18.286-8 18.286-18.286v-36.571c0-10.286-8-18.286-18.286-18.286h-402.286c-10.286 0-18.286 8-18.286 18.286v36.571c0 10.286 8 18.286 18.286 18.286h402.286zM640 219.428c10.286 0 18.286-8 18.286-18.286v-36.571c0-10.286-8-18.286-18.286-18.286h-402.286c-10.286 0-18.286 8-18.286 18.286v36.571c0 10.286 8 18.286 18.286 18.286h402.286z" />
<glyph unicode="&#xf104;" glyph-name="angle-left" horiz-adv-x="384" d="M358.286 640c0-4.571-2.286-9.714-5.714-13.143l-224.571-224.571 224.571-224.571c3.429-3.429 5.714-8.571 5.714-13.143s-2.286-9.714-5.714-13.143l-28.571-28.571c-3.429-3.429-8.571-5.714-13.143-5.714s-9.714 2.286-13.143 5.714l-266.286 266.286c-3.429 3.429-5.714 8.571-5.714 13.143s2.286 9.714 5.714 13.143l266.286 266.286c3.429 3.429 8.571 5.714 13.143 5.714s9.714-2.286 13.143-5.714l28.571-28.571c3.429-3.429 5.714-8 5.714-13.143z" />
<glyph unicode="&#xf105;" glyph-name="angle-right" horiz-adv-x="347" d="M340 402.286c0-4.571-2.286-9.714-5.714-13.143l-266.286-266.286c-3.429-3.429-8.571-5.714-13.143-5.714s-9.714 2.286-13.143 5.714l-28.571 28.571c-3.429 3.429-5.714 8-5.714 13.143 0 4.571 2.286 9.714 5.714 13.143l224.571 224.571-224.571 224.571c-3.429 3.429-5.714 8.571-5.714 13.143s2.286 9.714 5.714 13.143l28.571 28.571c3.429 3.429 8.571 5.714 13.143 5.714s9.714-2.286 13.143-5.714l266.286-266.286c3.429-3.429 5.714-8.571 5.714-13.143z" />
<glyph unicode="&#xf106;" glyph-name="angle-up" horiz-adv-x="658" d="M614.286 274.286c0-4.571-2.286-9.714-5.714-13.143l-28.571-28.571c-3.429-3.429-8-5.714-13.143-5.714-4.571 0-9.714 2.286-13.143 5.714l-224.571 224.571-224.571-224.571c-3.429-3.429-8.571-5.714-13.143-5.714s-9.714 2.286-13.143 5.714l-28.571 28.571c-3.429 3.429-5.714 8.571-5.714 13.143s2.286 9.714 5.714 13.143l266.286 266.286c3.429 3.429 8.571 5.714 13.143 5.714s9.714-2.286 13.143-5.714l266.286-266.286c3.429-3.429 5.714-8.571 5.714-13.143z" />
<glyph unicode="&#xf107;" glyph-name="angle-down" horiz-adv-x="658" d="M614.286 530.286c0-4.571-2.286-9.714-5.714-13.143l-266.286-266.286c-3.429-3.429-8.571-5.714-13.143-5.714s-9.714 2.286-13.143 5.714l-266.286 266.286c-3.429 3.429-5.714 8.571-5.714 13.143s2.286 9.714 5.714 13.143l28.571 28.571c3.429 3.429 8 5.714 13.143 5.714 4.571 0 9.714-2.286 13.143-5.714l224.571-224.571 224.571 224.571c3.429 3.429 8.571 5.714 13.143 5.714s9.714-2.286 13.143-5.714l28.571-28.571c3.429-3.429 5.714-8.571 5.714-13.143z" />
<glyph unicode="&#xf10d;" glyph-name="quote-left" horiz-adv-x="951" d="M438.857 402.286v-219.429c0-60.571-49.143-109.714-109.714-109.714h-219.429c-60.571 0-109.714 49.143-109.714 109.714v402.286c0 161.143 131.429 292.571 292.571 292.571h36.571c20 0 36.571-16.571 36.571-36.571v-73.143c0-20-16.571-36.571-36.571-36.571h-36.571c-80.571 0-146.286-65.714-146.286-146.286v-18.286c0-30.286 24.571-54.857 54.857-54.857h128c60.571 0 109.714-49.143 109.714-109.714zM950.857 402.286v-219.429c0-60.571-49.143-109.714-109.714-109.714h-219.429c-60.571 0-109.714 49.143-109.714 109.714v402.286c0 161.143 131.429 292.571 292.571 292.571h36.571c20 0 36.571-16.571 36.571-36.571v-73.143c0-20-16.571-36.571-36.571-36.571h-36.571c-80.571 0-146.286-65.714-146.286-146.286v-18.286c0-30.286 24.571-54.857 54.857-54.857h128c60.571 0 109.714-49.143 109.714-109.714z" />
<glyph unicode="&#xf10e;" glyph-name="quote-right" horiz-adv-x="951" d="M438.857 768v-402.286c0-161.143-131.429-292.571-292.571-292.571h-36.571c-20 0-36.571 16.571-36.571 36.571v73.143c0 20 16.571 36.571 36.571 36.571h36.571c80.571 0 146.286 65.714 146.286 146.286v18.286c0 30.286-24.571 54.857-54.857 54.857h-128c-60.571 0-109.714 49.143-109.714 109.714v219.429c0 60.571 49.143 109.714 109.714 109.714h219.429c60.571 0 109.714-49.143 109.714-109.714zM950.857 768v-402.286c0-161.143-131.429-292.571-292.571-292.571h-36.571c-20 0-36.571 16.571-36.571 36.571v73.143c0 20 16.571 36.571 36.571 36.571h36.571c80.571 0 146.286 65.714 146.286 146.286v18.286c0 30.286-24.571 54.857-54.857 54.857h-128c-60.571 0-109.714 49.143-109.714 109.714v219.429c0 60.571 49.143 109.714 109.714 109.714h219.429c60.571 0 109.714-49.143 109.714-109.714z" />
<glyph unicode="&#xf110;" glyph-name="spinner" d="M300.571 154.286c0-40-32.571-73.143-73.143-73.143-40 0-73.143 33.143-73.143 73.143 0 40.571 33.143 73.143 73.143 73.143 40.571 0 73.143-32.571 73.143-73.143zM585.143 36.571c0-40.571-32.571-73.143-73.143-73.143s-73.143 32.571-73.143 73.143 32.571 73.143 73.143 73.143 73.143-32.571 73.143-73.143zM182.857 438.857c0-40.571-32.571-73.143-73.143-73.143s-73.143 32.571-73.143 73.143 32.571 73.143 73.143 73.143 73.143-32.571 73.143-73.143zM869.714 154.286c0-40-33.143-73.143-73.143-73.143-40.571 0-73.143 33.143-73.143 73.143 0 40.571 32.571 73.143 73.143 73.143 40 0 73.143-32.571 73.143-73.143zM318.857 723.428c0-50.286-41.143-91.429-91.429-91.429s-91.429 41.143-91.429 91.429 41.143 91.429 91.429 91.429 91.429-41.143 91.429-91.429zM987.429 438.857c0-40.571-32.571-73.143-73.143-73.143s-73.143 32.571-73.143 73.143 32.571 73.143 73.143 73.143 73.143-32.571 73.143-73.143zM621.714 841.143c0-60.571-49.143-109.714-109.714-109.714s-109.714 49.143-109.714 109.714 49.143 109.714 109.714 109.714 109.714-49.143 109.714-109.714zM924.571 723.428c0-70.857-57.714-128-128-128-70.857 0-128 57.143-128 128 0 70.286 57.143 128 128 128 70.286 0 128-57.714 128-128z" />
<glyph unicode="&#xf114;" glyph-name="folder-o" horiz-adv-x="951" d="M877.714 201.143v402.286c0 30.286-24.571 54.857-54.857 54.857h-402.286c-30.286 0-54.857 24.571-54.857 54.857v36.571c0 30.286-24.571 54.857-54.857 54.857h-182.857c-30.286 0-54.857-24.571-54.857-54.857v-548.571c0-30.286 24.571-54.857 54.857-54.857h694.857c30.286 0 54.857 24.571 54.857 54.857zM950.857 603.428v-402.286c0-70.286-57.714-128-128-128h-694.857c-70.286 0-128 57.714-128 128v548.571c0 70.286 57.714 128 128 128h182.857c70.286 0 128-57.714 128-128v-18.286h384c70.286 0 128-57.714 128-128z" />
<glyph unicode="&#xf115;" glyph-name="folder-open-o" horiz-adv-x="1091" d="M1017.714 418.857c0 16-17.714 20-30.286 20h-621.714c-30.286 0-70.286-18.857-89.714-42.286l-168-207.429c-5.143-6.857-10.286-14.286-10.286-22.857 0-16 17.714-20 30.286-20h621.714c30.286 0 70.286 18.857 89.714 42.857l168 207.429c5.143 6.286 10.286 13.714 10.286 22.286zM365.714 512h438.857v91.429c0 30.286-24.571 54.857-54.857 54.857h-329.143c-30.286 0-54.857 24.571-54.857 54.857v36.571c0 30.286-24.571 54.857-54.857 54.857h-182.857c-30.286 0-54.857-24.571-54.857-54.857v-487.429l146.286 180c33.143 40.571 94.286 69.714 146.286 69.714zM1090.857 418.857c0-25.143-10.857-49.143-26.286-68.571l-168.571-207.429c-32.571-40-94.857-69.714-146.286-69.714h-621.714c-70.286 0-128 57.714-128 128v548.571c0 70.286 57.714 128 128 128h182.857c70.286 0 128-57.714 128-128v-18.286h310.857c70.286 0 128-57.714 128-128v-91.429h109.714c38.857 0 77.714-17.714 94.857-54.286 5.714-12 8.571-25.143 8.571-38.857z" />
<glyph unicode="&#xf13b;" glyph-name="html5" horiz-adv-x="805" d="M645.714 609.714l9.143 100h-505.143l26.857-305.143h349.714l-12.571-130.286-112.571-30.286-112 30.286-7.429 80h-100l12.571-158.857 206.857-57.143h2.286v0.571l205.143 56.571 28.571 310.857h-368l-8.571 103.429h385.143zM0 877.714h804.571l-73.143-821.714-330.286-92.571-328 92.571z" />
<glyph unicode="&#xf13c;" glyph-name="css3" d="M157.143 877.714h860l-152-761.714-459.429-152.571-398.857 152.571 40.571 203.429h169.714l-16.571-84 241.143-92 277.714 92 38.857 193.714h-690.286l33.143 169.714h690.857l21.714 109.143h-690.286z" />
<glyph unicode="&#xf15a;" glyph-name="bitcoin" horiz-adv-x="760" d="M666.857 585.143c7.429-76-24.571-121.714-74.857-147.429 83.429-20 136-69.714 125.714-181.143-13.143-138.857-116-176-263.429-184v-145.714h-88v143.429c-22.286 0-45.714 0-69.714 0.571v-144h-88v145.714c-20.571 0-41.143 0.571-62.286 0.571h-114.286l17.714 104.571c64.571-1.143 63.429 0 63.429 0 24.571 0 31.429 17.714 33.143 29.143v229.714h9.143c-3.429 0.571-6.857 0.571-9.143 0.571v164c-3.429 18.286-14.857 38.857-50.857 38.857 0 0 1.143 1.143-63.429 0v93.714l121.143-0.571c17.714 0 36.571 0 55.429 0.571v144h88v-141.143c23.429 0.571 46.857 1.143 69.714 1.143v140h88v-144c113.143-9.714 202.857-44.571 212.571-148.571zM544 273.714c0 113.143-186.286 96.571-245.714 96.571v-193.143c59.429 0 245.714-12.571 245.714 96.571zM503.429 545.714c0 103.429-155.429 88-205.143 88v-175.429c49.714 0 205.143-11.429 205.143 87.429z" />
<glyph unicode="&#xf164;" glyph-name="thumbs-up" horiz-adv-x="914" d="M146.286 182.857c0 20-16.571 36.571-36.571 36.571-20.571 0-36.571-16.571-36.571-36.571 0-20.571 16-36.571 36.571-36.571 20 0 36.571 16 36.571 36.571zM237.714 475.428v-365.714c0-20-16.571-36.571-36.571-36.571h-164.571c-20 0-36.571 16.571-36.571 36.571v365.714c0 20 16.571 36.571 36.571 36.571h164.571c20 0 36.571-16.571 36.571-36.571zM914.286 475.428c0-30.286-12-62.857-31.429-85.143 6.286-18.286 8.571-35.429 8.571-43.429 1.143-28.571-7.429-55.429-24.571-78.286 6.286-21.143 6.286-44 0-66.857-5.714-21.143-16.571-40-30.857-53.714 3.429-42.857-6.286-77.714-28-103.429-24.571-29.143-62.286-44-112.571-44.571h-73.714c-81.714 0-158.857 26.857-220.571 48-36 12.571-70.286 24.571-90.286 25.143-19.429 0.571-36.571 16.571-36.571 36.571v366.286c0 18.857 16 34.857 34.857 36.571 21.143 1.714 76 69.714 101.143 102.857 20.571 26.286 40 50.857 57.714 68.571 22.286 22.286 28.571 56.571 35.429 89.714 6.286 33.714 13.143 69.143 37.714 93.143 6.857 6.857 16 10.857 25.714 10.857 128 0 128-102.286 128-146.286 0-46.857-16.571-80-32-109.714-6.286-12.571-12-18.286-16.571-36.571h158.286c59.429 0 109.714-50.286 109.714-109.714z" />
</font>
</defs>
</svg>
